M48
; DRILL file {KiCad 8.0.3} date 2024-07-13T20:38:14+0200
; FORMAT={-:-/ absolute / inch / decimal}
; #@! TF.CreationDate,2024-07-13T20:38:14+02:00
; #@! TF.GenerationSoftware,Kicad,Pcbnew,8.0.3
; #@! TF.FileFunction,Plated,1,2,PTH
FMAT,2
INCH
; #@! TA.AperFunction,Plated,PTH,ComponentDrill
T1C0.0079
; #@! TA.AperFunction,Plated,PTH,ViaDrill
T2C0.0118
; #@! TA.AperFunction,Plated,PTH,ComponentDrill
T3C0.0236
; #@! TA.AperFunction,Plated,PTH,ComponentDrill
T4C0.0315
; #@! TA.AperFunction,Plated,PTH,ComponentDrill
T5C0.0394
; #@! TA.AperFunction,Plated,PTH,ComponentDrill
T6C0.0469
%
G90
G05
T1
X7.1161Y-1.7567
X7.1161Y-1.8118
X7.1437Y-1.7291
X7.1437Y-1.7843
X7.1437Y-1.8394
X7.1713Y-1.7567
X7.1713Y-1.8118
X7.1988Y-1.7291
X7.1988Y-1.7843
X7.1988Y-1.8394
X7.2264Y-1.7567
X7.2264Y-1.8118
T2
X2.3465Y-2.874
X2.4646Y-3.0315
X2.5157Y-3.0709
X2.563Y-3.1102
X2.6142Y-3.1496
X2.7677Y-2.874
X2.8622Y-2.874
X2.9921Y-3.0315
X3.0394Y-3.0709
X3.0906Y-3.1102
X3.1409Y-3.1496
X3.2913Y-2.874
X3.5236Y-2.874
X3.6496Y-3.0315
X3.6969Y-3.0709
X3.748Y-3.1102
X3.7992Y-3.1496
X3.9488Y-2.874
X4.0472Y-2.874
X4.1693Y-3.0315
X4.2205Y-3.0709
X4.2717Y-3.1102
X4.3228Y-3.1535
X4.4724Y-2.874
X4.7953Y-1.7205
X4.8583Y-2.874
X4.8937Y-1.7205
X4.9882Y-3.0315
X4.9961Y-1.7205
X5.0354Y-3.0709
X5.0866Y-3.1142
X5.1378Y-3.1496
X5.2874Y-2.874
X5.3819Y-2.874
X5.5118Y-3.0315
X5.5591Y-3.0709
X5.6102Y-3.1102
X5.6614Y-3.1496
X5.748Y-1.5354
X5.811Y-2.874
X5.8701Y-2.874
X6.0354Y-2.874
X6.063Y-1.7717
X6.1693Y-3.0315
X6.1811Y-1.5354
X6.2205Y-3.0709
X6.2677Y-3.1102
X6.3189Y-3.1496
X6.4528Y-1.7756
X6.4685Y-2.874
X6.5591Y-2.874
X6.6929Y-3.0315
X6.7402Y-3.0709
X6.7913Y-3.1142
X6.8425Y-3.1496
X6.9921Y-2.874
X7.1063Y-2.2559
X7.1535Y-2.2835
X7.1654Y-3.0709
X7.2047Y-1.9331
X7.2047Y-3.0315
X7.2441Y-3.1102
X7.2559Y-1.9331
X7.2835Y-3.1496
X7.3071Y-1.9331
X7.3819Y-2.874
X7.4843Y-1.9331
X7.5079Y-3.0354
X7.5551Y-3.0748
X7.6063Y-3.1142
X7.6575Y-3.1496
X7.7205Y-1.9331
X7.8071Y-2.874
X7.9094Y-2.874
X8.0276Y-3.0315
X8.0787Y-3.0709
X8.1299Y-3.1102
X8.1811Y-3.1496
X8.2008Y-1.7323
X8.2283Y-1.7835
X8.3307Y-2.874
X8.5591Y-2.874
X8.689Y-3.0315
X8.7362Y-3.0709
X8.7874Y-3.1102
X8.8386Y-3.1496
X8.9882Y-2.874
X9.0827Y-2.874
X9.2126Y-3.0315
X9.2598Y-3.0709
X9.311Y-3.1102
X9.3622Y-3.1496
X9.5118Y-2.874
T4
X2.4213Y-3.2874
X2.4213Y-2.4213
X2.5Y-3.2874
X2.5787Y-3.2874
X2.7362Y-2.4213
X2.815Y-2.4213
X2.8937Y-2.4213
X2.9724Y-2.4213
X3.1299Y-3.2874
X3.2087Y-3.2874
X3.2874Y-2.4213
X3.2874Y-3.2874
X3.6024Y-2.4213
X3.6024Y-3.2874
X3.6811Y-3.2874
X3.7598Y-3.2874
X3.9173Y-2.4213
X3.9961Y-2.4213
X4.0748Y-2.4213
X4.1535Y-2.4213
X4.311Y-3.2874
X4.3898Y-3.2874
X4.4685Y-2.4213
X4.4685Y-3.2874
X4.9409Y-2.4213
X4.9409Y-3.2874
X5.0197Y-3.2874
X5.0984Y-3.2874
X5.2559Y-2.4213
X5.3346Y-2.4213
X5.378Y-2.0709
X5.4134Y-2.4213
X5.4921Y-2.4213
X5.5157Y-2.0709
X5.6496Y-3.2874
X5.7283Y-3.2874
X5.8071Y-2.4213
X5.8071Y-3.2874
X5.9843Y-2.0551
X6.122Y-2.0551
X6.122Y-2.4213
X6.122Y-3.2874
X6.2008Y-3.2874
X6.2795Y-3.2874
X6.437Y-2.4213
X6.5157Y-2.4213
X6.5945Y-2.4213
X6.6732Y-2.4213
X6.8307Y-3.2874
X6.9094Y-3.2874
X6.9882Y-2.4213
X6.9882Y-3.2874
X7.4606Y-2.4213
X7.4606Y-3.2874
X7.5394Y-3.2874
X7.6181Y-3.2874
X7.7756Y-2.4213
X7.8543Y-2.4213
X7.9331Y-2.4213
X8.0118Y-2.4213
X8.1693Y-3.2874
X8.248Y-3.2874
X8.3268Y-2.4213
X8.3268Y-3.2874
X8.6417Y-2.4213
X8.6417Y-3.2874
X8.7205Y-3.2874
X8.7992Y-3.2874
X8.9567Y-2.4213
X9.0354Y-2.4213
X9.1142Y-2.4213
X9.1929Y-2.4213
X9.3504Y-3.2874
X9.4291Y-3.2874
X9.5079Y-2.4213
X9.5079Y-3.2874
T5
X4.3307Y-1.5
X4.3307Y-1.6
X4.3307Y-1.7
X4.3307Y-1.8
T6
X4.7945Y-1.5669
X4.8945Y-1.5669
X4.9945Y-1.5669
X5.0945Y-1.5669
T3
G00X5.7945Y-1.2953
M15
G01X5.7945Y-1.2638
M16
G05
G00X5.7945Y-1.4657
M15
G01X5.7945Y-1.4224
M16
G05
G00X6.1346Y-1.2953
M15
G01X6.1346Y-1.2638
M16
G05
G00X6.1346Y-1.4657
M15
G01X6.1346Y-1.4224
M16
G05
M30
