%TF.GenerationSoftware,KiCad,Pcbnew,8.0.3*%
%TF.CreationDate,2024-07-13T20:38:13+02:00*%
%TF.ProjectId,Steuerplatine,53746575-6572-4706-9c61-74696e652e6b,rev?*%
%TF.SameCoordinates,Original*%
%TF.FileFunction,Drillmap*%
%TF.FilePolarity,Positive*%
%FSLAX45Y45*%
G04 Gerber Fmt 4.5, Leading zero omitted, Abs format (unit mm)*
G04 Created by KiCad (PCBNEW 8.0.3) date 2024-07-13 20:38:13*
%MOMM*%
%LPD*%
G01*
G04 APERTURE LIST*
%ADD10C,0.050000*%
%ADD11C,0.200000*%
%ADD12C,0.100000*%
%ADD13C,0.119000*%
G04 APERTURE END LIST*
D10*
X5000000Y-2990000D02*
X25000000Y-2990000D01*
X25000000Y-9000000D01*
X5000000Y-9000000D01*
X5000000Y-2990000D01*
D11*
D12*
X18065000Y-4452000D02*
X18085000Y-4472000D01*
X18085000Y-4452000D02*
X18065000Y-4472000D01*
X18065000Y-4592000D02*
X18085000Y-4612000D01*
X18085000Y-4592000D02*
X18065000Y-4612000D01*
X18135000Y-4382000D02*
X18155000Y-4402000D01*
X18155000Y-4382000D02*
X18135000Y-4402000D01*
X18135000Y-4522000D02*
X18155000Y-4542000D01*
X18155000Y-4522000D02*
X18135000Y-4542000D01*
X18135000Y-4662000D02*
X18155000Y-4682000D01*
X18155000Y-4662000D02*
X18135000Y-4682000D01*
X18205000Y-4452000D02*
X18225000Y-4472000D01*
X18225000Y-4452000D02*
X18205000Y-4472000D01*
X18205000Y-4592000D02*
X18225000Y-4612000D01*
X18225000Y-4592000D02*
X18205000Y-4612000D01*
X18275000Y-4382000D02*
X18295000Y-4402000D01*
X18295000Y-4382000D02*
X18275000Y-4402000D01*
X18275000Y-4522000D02*
X18295000Y-4542000D01*
X18295000Y-4522000D02*
X18275000Y-4542000D01*
X18275000Y-4662000D02*
X18295000Y-4682000D01*
X18295000Y-4662000D02*
X18275000Y-4682000D01*
X18345000Y-4452000D02*
X18365000Y-4472000D01*
X18365000Y-4452000D02*
X18345000Y-4472000D01*
X18345000Y-4592000D02*
X18365000Y-4612000D01*
X18365000Y-4592000D02*
X18345000Y-4612000D01*
X5975000Y-7300000D02*
G75*
G02*
X5945000Y-7300000I-15000J0D01*
G01*
X5945000Y-7300000D02*
G75*
G02*
X5975000Y-7300000I15000J0D01*
G01*
X6275000Y-7700000D02*
G75*
G02*
X6245000Y-7700000I-15000J0D01*
G01*
X6245000Y-7700000D02*
G75*
G02*
X6275000Y-7700000I15000J0D01*
G01*
X6405000Y-7800000D02*
G75*
G02*
X6375000Y-7800000I-15000J0D01*
G01*
X6375000Y-7800000D02*
G75*
G02*
X6405000Y-7800000I15000J0D01*
G01*
X6525000Y-7900000D02*
G75*
G02*
X6495000Y-7900000I-15000J0D01*
G01*
X6495000Y-7900000D02*
G75*
G02*
X6525000Y-7900000I15000J0D01*
G01*
X6655000Y-8000000D02*
G75*
G02*
X6625000Y-8000000I-15000J0D01*
G01*
X6625000Y-8000000D02*
G75*
G02*
X6655000Y-8000000I15000J0D01*
G01*
X7045000Y-7300000D02*
G75*
G02*
X7015000Y-7300000I-15000J0D01*
G01*
X7015000Y-7300000D02*
G75*
G02*
X7045000Y-7300000I15000J0D01*
G01*
X7285000Y-7300000D02*
G75*
G02*
X7255000Y-7300000I-15000J0D01*
G01*
X7255000Y-7300000D02*
G75*
G02*
X7285000Y-7300000I15000J0D01*
G01*
X7615000Y-7700000D02*
G75*
G02*
X7585000Y-7700000I-15000J0D01*
G01*
X7585000Y-7700000D02*
G75*
G02*
X7615000Y-7700000I15000J0D01*
G01*
X7735000Y-7800000D02*
G75*
G02*
X7705000Y-7800000I-15000J0D01*
G01*
X7705000Y-7800000D02*
G75*
G02*
X7735000Y-7800000I15000J0D01*
G01*
X7865000Y-7900000D02*
G75*
G02*
X7835000Y-7900000I-15000J0D01*
G01*
X7835000Y-7900000D02*
G75*
G02*
X7865000Y-7900000I15000J0D01*
G01*
X7993000Y-8000000D02*
G75*
G02*
X7963000Y-8000000I-15000J0D01*
G01*
X7963000Y-8000000D02*
G75*
G02*
X7993000Y-8000000I15000J0D01*
G01*
X8375000Y-7300000D02*
G75*
G02*
X8345000Y-7300000I-15000J0D01*
G01*
X8345000Y-7300000D02*
G75*
G02*
X8375000Y-7300000I15000J0D01*
G01*
X8965000Y-7300000D02*
G75*
G02*
X8935000Y-7300000I-15000J0D01*
G01*
X8935000Y-7300000D02*
G75*
G02*
X8965000Y-7300000I15000J0D01*
G01*
X9285000Y-7700000D02*
G75*
G02*
X9255000Y-7700000I-15000J0D01*
G01*
X9255000Y-7700000D02*
G75*
G02*
X9285000Y-7700000I15000J0D01*
G01*
X9405000Y-7800000D02*
G75*
G02*
X9375000Y-7800000I-15000J0D01*
G01*
X9375000Y-7800000D02*
G75*
G02*
X9405000Y-7800000I15000J0D01*
G01*
X9535000Y-7900000D02*
G75*
G02*
X9505000Y-7900000I-15000J0D01*
G01*
X9505000Y-7900000D02*
G75*
G02*
X9535000Y-7900000I15000J0D01*
G01*
X9665000Y-8000000D02*
G75*
G02*
X9635000Y-8000000I-15000J0D01*
G01*
X9635000Y-8000000D02*
G75*
G02*
X9665000Y-8000000I15000J0D01*
G01*
X10045000Y-7300000D02*
G75*
G02*
X10015000Y-7300000I-15000J0D01*
G01*
X10015000Y-7300000D02*
G75*
G02*
X10045000Y-7300000I15000J0D01*
G01*
X10295000Y-7300000D02*
G75*
G02*
X10265000Y-7300000I-15000J0D01*
G01*
X10265000Y-7300000D02*
G75*
G02*
X10295000Y-7300000I15000J0D01*
G01*
X10605000Y-7700000D02*
G75*
G02*
X10575000Y-7700000I-15000J0D01*
G01*
X10575000Y-7700000D02*
G75*
G02*
X10605000Y-7700000I15000J0D01*
G01*
X10735000Y-7800000D02*
G75*
G02*
X10705000Y-7800000I-15000J0D01*
G01*
X10705000Y-7800000D02*
G75*
G02*
X10735000Y-7800000I15000J0D01*
G01*
X10865000Y-7900000D02*
G75*
G02*
X10835000Y-7900000I-15000J0D01*
G01*
X10835000Y-7900000D02*
G75*
G02*
X10865000Y-7900000I15000J0D01*
G01*
X10995000Y-8010000D02*
G75*
G02*
X10965000Y-8010000I-15000J0D01*
G01*
X10965000Y-8010000D02*
G75*
G02*
X10995000Y-8010000I15000J0D01*
G01*
X11375000Y-7300000D02*
G75*
G02*
X11345000Y-7300000I-15000J0D01*
G01*
X11345000Y-7300000D02*
G75*
G02*
X11375000Y-7300000I15000J0D01*
G01*
X12195000Y-4370000D02*
G75*
G02*
X12165000Y-4370000I-15000J0D01*
G01*
X12165000Y-4370000D02*
G75*
G02*
X12195000Y-4370000I15000J0D01*
G01*
X12355000Y-7300000D02*
G75*
G02*
X12325000Y-7300000I-15000J0D01*
G01*
X12325000Y-7300000D02*
G75*
G02*
X12355000Y-7300000I15000J0D01*
G01*
X12445000Y-4370000D02*
G75*
G02*
X12415000Y-4370000I-15000J0D01*
G01*
X12415000Y-4370000D02*
G75*
G02*
X12445000Y-4370000I15000J0D01*
G01*
X12685000Y-7700000D02*
G75*
G02*
X12655000Y-7700000I-15000J0D01*
G01*
X12655000Y-7700000D02*
G75*
G02*
X12685000Y-7700000I15000J0D01*
G01*
X12705000Y-4370000D02*
G75*
G02*
X12675000Y-4370000I-15000J0D01*
G01*
X12675000Y-4370000D02*
G75*
G02*
X12705000Y-4370000I15000J0D01*
G01*
X12805000Y-7800000D02*
G75*
G02*
X12775000Y-7800000I-15000J0D01*
G01*
X12775000Y-7800000D02*
G75*
G02*
X12805000Y-7800000I15000J0D01*
G01*
X12935000Y-7910000D02*
G75*
G02*
X12905000Y-7910000I-15000J0D01*
G01*
X12905000Y-7910000D02*
G75*
G02*
X12935000Y-7910000I15000J0D01*
G01*
X13065000Y-8000000D02*
G75*
G02*
X13035000Y-8000000I-15000J0D01*
G01*
X13035000Y-8000000D02*
G75*
G02*
X13065000Y-8000000I15000J0D01*
G01*
X13445000Y-7300000D02*
G75*
G02*
X13415000Y-7300000I-15000J0D01*
G01*
X13415000Y-7300000D02*
G75*
G02*
X13445000Y-7300000I15000J0D01*
G01*
X13685000Y-7300000D02*
G75*
G02*
X13655000Y-7300000I-15000J0D01*
G01*
X13655000Y-7300000D02*
G75*
G02*
X13685000Y-7300000I15000J0D01*
G01*
X14015000Y-7700000D02*
G75*
G02*
X13985000Y-7700000I-15000J0D01*
G01*
X13985000Y-7700000D02*
G75*
G02*
X14015000Y-7700000I15000J0D01*
G01*
X14135000Y-7800000D02*
G75*
G02*
X14105000Y-7800000I-15000J0D01*
G01*
X14105000Y-7800000D02*
G75*
G02*
X14135000Y-7800000I15000J0D01*
G01*
X14265000Y-7900000D02*
G75*
G02*
X14235000Y-7900000I-15000J0D01*
G01*
X14235000Y-7900000D02*
G75*
G02*
X14265000Y-7900000I15000J0D01*
G01*
X14395000Y-8000000D02*
G75*
G02*
X14365000Y-8000000I-15000J0D01*
G01*
X14365000Y-8000000D02*
G75*
G02*
X14395000Y-8000000I15000J0D01*
G01*
X14615000Y-3900000D02*
G75*
G02*
X14585000Y-3900000I-15000J0D01*
G01*
X14585000Y-3900000D02*
G75*
G02*
X14615000Y-3900000I15000J0D01*
G01*
X14775000Y-7300000D02*
G75*
G02*
X14745000Y-7300000I-15000J0D01*
G01*
X14745000Y-7300000D02*
G75*
G02*
X14775000Y-7300000I15000J0D01*
G01*
X14925000Y-7300000D02*
G75*
G02*
X14895000Y-7300000I-15000J0D01*
G01*
X14895000Y-7300000D02*
G75*
G02*
X14925000Y-7300000I15000J0D01*
G01*
X15345000Y-7300000D02*
G75*
G02*
X15315000Y-7300000I-15000J0D01*
G01*
X15315000Y-7300000D02*
G75*
G02*
X15345000Y-7300000I15000J0D01*
G01*
X15415000Y-4500000D02*
G75*
G02*
X15385000Y-4500000I-15000J0D01*
G01*
X15385000Y-4500000D02*
G75*
G02*
X15415000Y-4500000I15000J0D01*
G01*
X15685000Y-7700000D02*
G75*
G02*
X15655000Y-7700000I-15000J0D01*
G01*
X15655000Y-7700000D02*
G75*
G02*
X15685000Y-7700000I15000J0D01*
G01*
X15715000Y-3900000D02*
G75*
G02*
X15685000Y-3900000I-15000J0D01*
G01*
X15685000Y-3900000D02*
G75*
G02*
X15715000Y-3900000I15000J0D01*
G01*
X15815000Y-7800000D02*
G75*
G02*
X15785000Y-7800000I-15000J0D01*
G01*
X15785000Y-7800000D02*
G75*
G02*
X15815000Y-7800000I15000J0D01*
G01*
X15935000Y-7900000D02*
G75*
G02*
X15905000Y-7900000I-15000J0D01*
G01*
X15905000Y-7900000D02*
G75*
G02*
X15935000Y-7900000I15000J0D01*
G01*
X16065000Y-8000000D02*
G75*
G02*
X16035000Y-8000000I-15000J0D01*
G01*
X16035000Y-8000000D02*
G75*
G02*
X16065000Y-8000000I15000J0D01*
G01*
X16405000Y-4510000D02*
G75*
G02*
X16375000Y-4510000I-15000J0D01*
G01*
X16375000Y-4510000D02*
G75*
G02*
X16405000Y-4510000I15000J0D01*
G01*
X16445000Y-7300000D02*
G75*
G02*
X16415000Y-7300000I-15000J0D01*
G01*
X16415000Y-7300000D02*
G75*
G02*
X16445000Y-7300000I15000J0D01*
G01*
X16675000Y-7300000D02*
G75*
G02*
X16645000Y-7300000I-15000J0D01*
G01*
X16645000Y-7300000D02*
G75*
G02*
X16675000Y-7300000I15000J0D01*
G01*
X17015000Y-7700000D02*
G75*
G02*
X16985000Y-7700000I-15000J0D01*
G01*
X16985000Y-7700000D02*
G75*
G02*
X17015000Y-7700000I15000J0D01*
G01*
X17135000Y-7800000D02*
G75*
G02*
X17105000Y-7800000I-15000J0D01*
G01*
X17105000Y-7800000D02*
G75*
G02*
X17135000Y-7800000I15000J0D01*
G01*
X17265000Y-7910000D02*
G75*
G02*
X17235000Y-7910000I-15000J0D01*
G01*
X17235000Y-7910000D02*
G75*
G02*
X17265000Y-7910000I15000J0D01*
G01*
X17395000Y-8000000D02*
G75*
G02*
X17365000Y-8000000I-15000J0D01*
G01*
X17365000Y-8000000D02*
G75*
G02*
X17395000Y-8000000I15000J0D01*
G01*
X17775000Y-7300000D02*
G75*
G02*
X17745000Y-7300000I-15000J0D01*
G01*
X17745000Y-7300000D02*
G75*
G02*
X17775000Y-7300000I15000J0D01*
G01*
X18065000Y-5730000D02*
G75*
G02*
X18035000Y-5730000I-15000J0D01*
G01*
X18035000Y-5730000D02*
G75*
G02*
X18065000Y-5730000I15000J0D01*
G01*
X18185000Y-5800000D02*
G75*
G02*
X18155000Y-5800000I-15000J0D01*
G01*
X18155000Y-5800000D02*
G75*
G02*
X18185000Y-5800000I15000J0D01*
G01*
X18215000Y-7800000D02*
G75*
G02*
X18185000Y-7800000I-15000J0D01*
G01*
X18185000Y-7800000D02*
G75*
G02*
X18215000Y-7800000I15000J0D01*
G01*
X18315000Y-4910000D02*
G75*
G02*
X18285000Y-4910000I-15000J0D01*
G01*
X18285000Y-4910000D02*
G75*
G02*
X18315000Y-4910000I15000J0D01*
G01*
X18315000Y-7700000D02*
G75*
G02*
X18285000Y-7700000I-15000J0D01*
G01*
X18285000Y-7700000D02*
G75*
G02*
X18315000Y-7700000I15000J0D01*
G01*
X18415000Y-7900000D02*
G75*
G02*
X18385000Y-7900000I-15000J0D01*
G01*
X18385000Y-7900000D02*
G75*
G02*
X18415000Y-7900000I15000J0D01*
G01*
X18445000Y-4910000D02*
G75*
G02*
X18415000Y-4910000I-15000J0D01*
G01*
X18415000Y-4910000D02*
G75*
G02*
X18445000Y-4910000I15000J0D01*
G01*
X18515000Y-8000000D02*
G75*
G02*
X18485000Y-8000000I-15000J0D01*
G01*
X18485000Y-8000000D02*
G75*
G02*
X18515000Y-8000000I15000J0D01*
G01*
X18575000Y-4910000D02*
G75*
G02*
X18545000Y-4910000I-15000J0D01*
G01*
X18545000Y-4910000D02*
G75*
G02*
X18575000Y-4910000I15000J0D01*
G01*
X18765000Y-7300000D02*
G75*
G02*
X18735000Y-7300000I-15000J0D01*
G01*
X18735000Y-7300000D02*
G75*
G02*
X18765000Y-7300000I15000J0D01*
G01*
X19025000Y-4910000D02*
G75*
G02*
X18995000Y-4910000I-15000J0D01*
G01*
X18995000Y-4910000D02*
G75*
G02*
X19025000Y-4910000I15000J0D01*
G01*
X19085000Y-7710000D02*
G75*
G02*
X19055000Y-7710000I-15000J0D01*
G01*
X19055000Y-7710000D02*
G75*
G02*
X19085000Y-7710000I15000J0D01*
G01*
X19205000Y-7810000D02*
G75*
G02*
X19175000Y-7810000I-15000J0D01*
G01*
X19175000Y-7810000D02*
G75*
G02*
X19205000Y-7810000I15000J0D01*
G01*
X19335000Y-7910000D02*
G75*
G02*
X19305000Y-7910000I-15000J0D01*
G01*
X19305000Y-7910000D02*
G75*
G02*
X19335000Y-7910000I15000J0D01*
G01*
X19465000Y-8000000D02*
G75*
G02*
X19435000Y-8000000I-15000J0D01*
G01*
X19435000Y-8000000D02*
G75*
G02*
X19465000Y-8000000I15000J0D01*
G01*
X19625000Y-4910000D02*
G75*
G02*
X19595000Y-4910000I-15000J0D01*
G01*
X19595000Y-4910000D02*
G75*
G02*
X19625000Y-4910000I15000J0D01*
G01*
X19845000Y-7300000D02*
G75*
G02*
X19815000Y-7300000I-15000J0D01*
G01*
X19815000Y-7300000D02*
G75*
G02*
X19845000Y-7300000I15000J0D01*
G01*
X20105000Y-7300000D02*
G75*
G02*
X20075000Y-7300000I-15000J0D01*
G01*
X20075000Y-7300000D02*
G75*
G02*
X20105000Y-7300000I15000J0D01*
G01*
X20405000Y-7700000D02*
G75*
G02*
X20375000Y-7700000I-15000J0D01*
G01*
X20375000Y-7700000D02*
G75*
G02*
X20405000Y-7700000I15000J0D01*
G01*
X20535000Y-7800000D02*
G75*
G02*
X20505000Y-7800000I-15000J0D01*
G01*
X20505000Y-7800000D02*
G75*
G02*
X20535000Y-7800000I15000J0D01*
G01*
X20665000Y-7900000D02*
G75*
G02*
X20635000Y-7900000I-15000J0D01*
G01*
X20635000Y-7900000D02*
G75*
G02*
X20665000Y-7900000I15000J0D01*
G01*
X20795000Y-8000000D02*
G75*
G02*
X20765000Y-8000000I-15000J0D01*
G01*
X20765000Y-8000000D02*
G75*
G02*
X20795000Y-8000000I15000J0D01*
G01*
X20845000Y-4400000D02*
G75*
G02*
X20815000Y-4400000I-15000J0D01*
G01*
X20815000Y-4400000D02*
G75*
G02*
X20845000Y-4400000I15000J0D01*
G01*
X20915000Y-4530000D02*
G75*
G02*
X20885000Y-4530000I-15000J0D01*
G01*
X20885000Y-4530000D02*
G75*
G02*
X20915000Y-4530000I15000J0D01*
G01*
X21175000Y-7300000D02*
G75*
G02*
X21145000Y-7300000I-15000J0D01*
G01*
X21145000Y-7300000D02*
G75*
G02*
X21175000Y-7300000I15000J0D01*
G01*
X21755000Y-7300000D02*
G75*
G02*
X21725000Y-7300000I-15000J0D01*
G01*
X21725000Y-7300000D02*
G75*
G02*
X21755000Y-7300000I15000J0D01*
G01*
X22085000Y-7700000D02*
G75*
G02*
X22055000Y-7700000I-15000J0D01*
G01*
X22055000Y-7700000D02*
G75*
G02*
X22085000Y-7700000I15000J0D01*
G01*
X22205000Y-7800000D02*
G75*
G02*
X22175000Y-7800000I-15000J0D01*
G01*
X22175000Y-7800000D02*
G75*
G02*
X22205000Y-7800000I15000J0D01*
G01*
X22335000Y-7900000D02*
G75*
G02*
X22305000Y-7900000I-15000J0D01*
G01*
X22305000Y-7900000D02*
G75*
G02*
X22335000Y-7900000I15000J0D01*
G01*
X22465000Y-8000000D02*
G75*
G02*
X22435000Y-8000000I-15000J0D01*
G01*
X22435000Y-8000000D02*
G75*
G02*
X22465000Y-8000000I15000J0D01*
G01*
X22845000Y-7300000D02*
G75*
G02*
X22815000Y-7300000I-15000J0D01*
G01*
X22815000Y-7300000D02*
G75*
G02*
X22845000Y-7300000I15000J0D01*
G01*
X23085000Y-7300000D02*
G75*
G02*
X23055000Y-7300000I-15000J0D01*
G01*
X23055000Y-7300000D02*
G75*
G02*
X23085000Y-7300000I15000J0D01*
G01*
X23415000Y-7700000D02*
G75*
G02*
X23385000Y-7700000I-15000J0D01*
G01*
X23385000Y-7700000D02*
G75*
G02*
X23415000Y-7700000I15000J0D01*
G01*
X23535000Y-7800000D02*
G75*
G02*
X23505000Y-7800000I-15000J0D01*
G01*
X23505000Y-7800000D02*
G75*
G02*
X23535000Y-7800000I15000J0D01*
G01*
X23665000Y-7900000D02*
G75*
G02*
X23635000Y-7900000I-15000J0D01*
G01*
X23635000Y-7900000D02*
G75*
G02*
X23665000Y-7900000I15000J0D01*
G01*
X23795000Y-8000000D02*
G75*
G02*
X23765000Y-8000000I-15000J0D01*
G01*
X23765000Y-8000000D02*
G75*
G02*
X23795000Y-8000000I15000J0D01*
G01*
X24175000Y-7300000D02*
G75*
G02*
X24145000Y-7300000I-15000J0D01*
G01*
X24145000Y-7300000D02*
G75*
G02*
X24175000Y-7300000I15000J0D01*
G01*
X14718000Y-3220000D02*
X14718000Y-3280000D01*
X14688000Y-3250000D02*
X14748000Y-3250000D01*
X14748000Y-3290000D02*
X14748000Y-3210000D01*
X14688000Y-3210000D02*
G75*
G02*
X14748000Y-3210000I30000J0D01*
G01*
X14688000Y-3210000D02*
X14688000Y-3290000D01*
X14688000Y-3290000D02*
G75*
G03*
X14748000Y-3290000I30000J0D01*
G01*
X14718000Y-3638000D02*
X14718000Y-3698000D01*
X14688000Y-3668000D02*
X14748000Y-3668000D01*
X14748000Y-3723000D02*
X14748000Y-3613000D01*
X14688000Y-3613000D02*
G75*
G02*
X14748000Y-3613000I30000J0D01*
G01*
X14688000Y-3613000D02*
X14688000Y-3723000D01*
X14688000Y-3723000D02*
G75*
G03*
X14748000Y-3723000I30000J0D01*
G01*
X15582000Y-3220000D02*
X15582000Y-3280000D01*
X15552000Y-3250000D02*
X15612000Y-3250000D01*
X15612000Y-3290000D02*
X15612000Y-3210000D01*
X15552000Y-3210000D02*
G75*
G02*
X15612000Y-3210000I30000J0D01*
G01*
X15552000Y-3210000D02*
X15552000Y-3290000D01*
X15552000Y-3290000D02*
G75*
G03*
X15612000Y-3290000I30000J0D01*
G01*
X15582000Y-3638000D02*
X15582000Y-3698000D01*
X15552000Y-3668000D02*
X15612000Y-3668000D01*
X15612000Y-3723000D02*
X15612000Y-3613000D01*
X15552000Y-3613000D02*
G75*
G02*
X15612000Y-3613000I30000J0D01*
G01*
X15552000Y-3613000D02*
X15552000Y-3723000D01*
X15552000Y-3723000D02*
G75*
G03*
X15612000Y-3723000I30000J0D01*
G01*
X6178284Y-8378284D02*
X6178284Y-8321715D01*
X6121715Y-8321715D01*
X6121715Y-8378284D01*
X6178284Y-8378284D01*
X6178284Y-6178284D02*
X6178284Y-6121715D01*
X6121715Y-6121715D01*
X6121715Y-6178284D01*
X6178284Y-6178284D01*
X6378284Y-8378284D02*
X6378284Y-8321715D01*
X6321715Y-8321715D01*
X6321715Y-8378284D01*
X6378284Y-8378284D01*
X6578284Y-8378284D02*
X6578284Y-8321715D01*
X6521715Y-8321715D01*
X6521715Y-8378284D01*
X6578284Y-8378284D01*
X6978284Y-6178284D02*
X6978284Y-6121715D01*
X6921715Y-6121715D01*
X6921715Y-6178284D01*
X6978284Y-6178284D01*
X7178284Y-6178284D02*
X7178284Y-6121715D01*
X7121715Y-6121715D01*
X7121715Y-6178284D01*
X7178284Y-6178284D01*
X7378284Y-6178284D02*
X7378284Y-6121715D01*
X7321715Y-6121715D01*
X7321715Y-6178284D01*
X7378284Y-6178284D01*
X7578284Y-6178284D02*
X7578284Y-6121715D01*
X7521715Y-6121715D01*
X7521715Y-6178284D01*
X7578284Y-6178284D01*
X7978284Y-8378284D02*
X7978284Y-8321715D01*
X7921715Y-8321715D01*
X7921715Y-8378284D01*
X7978284Y-8378284D01*
X8178284Y-8378284D02*
X8178284Y-8321715D01*
X8121715Y-8321715D01*
X8121715Y-8378284D01*
X8178284Y-8378284D01*
X8378284Y-6178284D02*
X8378284Y-6121715D01*
X8321715Y-6121715D01*
X8321715Y-6178284D01*
X8378284Y-6178284D01*
X8378284Y-8378284D02*
X8378284Y-8321715D01*
X8321715Y-8321715D01*
X8321715Y-8378284D01*
X8378284Y-8378284D01*
X9178285Y-6178284D02*
X9178285Y-6121715D01*
X9121716Y-6121715D01*
X9121716Y-6178284D01*
X9178285Y-6178284D01*
X9178285Y-8378284D02*
X9178285Y-8321715D01*
X9121716Y-8321715D01*
X9121716Y-8378284D01*
X9178285Y-8378284D01*
X9378285Y-8378284D02*
X9378285Y-8321715D01*
X9321716Y-8321715D01*
X9321716Y-8378284D01*
X9378285Y-8378284D01*
X9578285Y-8378284D02*
X9578285Y-8321715D01*
X9521716Y-8321715D01*
X9521716Y-8378284D01*
X9578285Y-8378284D01*
X9978285Y-6178284D02*
X9978285Y-6121715D01*
X9921716Y-6121715D01*
X9921716Y-6178284D01*
X9978285Y-6178284D01*
X10178285Y-6178284D02*
X10178285Y-6121715D01*
X10121716Y-6121715D01*
X10121716Y-6178284D01*
X10178285Y-6178284D01*
X10378285Y-6178284D02*
X10378285Y-6121715D01*
X10321716Y-6121715D01*
X10321716Y-6178284D01*
X10378285Y-6178284D01*
X10578285Y-6178284D02*
X10578285Y-6121715D01*
X10521716Y-6121715D01*
X10521716Y-6178284D01*
X10578285Y-6178284D01*
X10978285Y-8378284D02*
X10978285Y-8321715D01*
X10921716Y-8321715D01*
X10921716Y-8378284D01*
X10978285Y-8378284D01*
X11178285Y-8378284D02*
X11178285Y-8321715D01*
X11121716Y-8321715D01*
X11121716Y-8378284D01*
X11178285Y-8378284D01*
X11378284Y-6178284D02*
X11378284Y-6121715D01*
X11321715Y-6121715D01*
X11321715Y-6178284D01*
X11378284Y-6178284D01*
X11378284Y-8378284D02*
X11378284Y-8321715D01*
X11321715Y-8321715D01*
X11321715Y-8378284D01*
X11378284Y-8378284D01*
X12578284Y-6178284D02*
X12578284Y-6121715D01*
X12521715Y-6121715D01*
X12521715Y-6178284D01*
X12578284Y-6178284D01*
X12578284Y-8378284D02*
X12578284Y-8321715D01*
X12521715Y-8321715D01*
X12521715Y-8378284D01*
X12578284Y-8378284D01*
X12778284Y-8378284D02*
X12778284Y-8321715D01*
X12721715Y-8321715D01*
X12721715Y-8378284D01*
X12778284Y-8378284D01*
X12978284Y-8378284D02*
X12978284Y-8321715D01*
X12921715Y-8321715D01*
X12921715Y-8378284D01*
X12978284Y-8378284D01*
X13378284Y-6178284D02*
X13378284Y-6121715D01*
X13321715Y-6121715D01*
X13321715Y-6178284D01*
X13378284Y-6178284D01*
X13578284Y-6178284D02*
X13578284Y-6121715D01*
X13521715Y-6121715D01*
X13521715Y-6178284D01*
X13578284Y-6178284D01*
X13688284Y-5288285D02*
X13688284Y-5231716D01*
X13631715Y-5231716D01*
X13631715Y-5288285D01*
X13688284Y-5288285D01*
X13778284Y-6178284D02*
X13778284Y-6121715D01*
X13721715Y-6121715D01*
X13721715Y-6178284D01*
X13778284Y-6178284D01*
X13978284Y-6178284D02*
X13978284Y-6121715D01*
X13921715Y-6121715D01*
X13921715Y-6178284D01*
X13978284Y-6178284D01*
X14038284Y-5288285D02*
X14038284Y-5231716D01*
X13981715Y-5231716D01*
X13981715Y-5288285D01*
X14038284Y-5288285D01*
X14378284Y-8378284D02*
X14378284Y-8321715D01*
X14321715Y-8321715D01*
X14321715Y-8378284D01*
X14378284Y-8378284D01*
X14578284Y-8378284D02*
X14578284Y-8321715D01*
X14521715Y-8321715D01*
X14521715Y-8378284D01*
X14578284Y-8378284D01*
X14778284Y-6178284D02*
X14778284Y-6121715D01*
X14721715Y-6121715D01*
X14721715Y-6178284D01*
X14778284Y-6178284D01*
X14778284Y-8378284D02*
X14778284Y-8321715D01*
X14721715Y-8321715D01*
X14721715Y-8378284D01*
X14778284Y-8378284D01*
X15228284Y-5248285D02*
X15228284Y-5191716D01*
X15171715Y-5191716D01*
X15171715Y-5248285D01*
X15228284Y-5248285D01*
X15578284Y-5248285D02*
X15578284Y-5191716D01*
X15521715Y-5191716D01*
X15521715Y-5248285D01*
X15578284Y-5248285D01*
X15578284Y-6178284D02*
X15578284Y-6121715D01*
X15521715Y-6121715D01*
X15521715Y-6178284D01*
X15578284Y-6178284D01*
X15578284Y-8378284D02*
X15578284Y-8321715D01*
X15521715Y-8321715D01*
X15521715Y-8378284D01*
X15578284Y-8378284D01*
X15778284Y-8378284D02*
X15778284Y-8321715D01*
X15721715Y-8321715D01*
X15721715Y-8378284D01*
X15778284Y-8378284D01*
X15978284Y-8378284D02*
X15978284Y-8321715D01*
X15921715Y-8321715D01*
X15921715Y-8378284D01*
X15978284Y-8378284D01*
X16378284Y-6178284D02*
X16378284Y-6121715D01*
X16321715Y-6121715D01*
X16321715Y-6178284D01*
X16378284Y-6178284D01*
X16578284Y-6178284D02*
X16578284Y-6121715D01*
X16521715Y-6121715D01*
X16521715Y-6178284D01*
X16578284Y-6178284D01*
X16778285Y-6178284D02*
X16778285Y-6121715D01*
X16721715Y-6121715D01*
X16721715Y-6178284D01*
X16778285Y-6178284D01*
X16978285Y-6178284D02*
X16978285Y-6121715D01*
X16921716Y-6121715D01*
X16921716Y-6178284D01*
X16978285Y-6178284D01*
X17378285Y-8378284D02*
X17378285Y-8321715D01*
X17321716Y-8321715D01*
X17321716Y-8378284D01*
X17378285Y-8378284D01*
X17578285Y-8378284D02*
X17578285Y-8321715D01*
X17521716Y-8321715D01*
X17521716Y-8378284D01*
X17578285Y-8378284D01*
X17778285Y-6178284D02*
X17778285Y-6121715D01*
X17721716Y-6121715D01*
X17721716Y-6178284D01*
X17778285Y-6178284D01*
X17778285Y-8378284D02*
X17778285Y-8321715D01*
X17721716Y-8321715D01*
X17721716Y-8378284D01*
X17778285Y-8378284D01*
X18978285Y-6178284D02*
X18978285Y-6121715D01*
X18921716Y-6121715D01*
X18921716Y-6178284D01*
X18978285Y-6178284D01*
X18978285Y-8378284D02*
X18978285Y-8321715D01*
X18921716Y-8321715D01*
X18921716Y-8378284D01*
X18978285Y-8378284D01*
X19178285Y-8378284D02*
X19178285Y-8321715D01*
X19121716Y-8321715D01*
X19121716Y-8378284D01*
X19178285Y-8378284D01*
X19378285Y-8378284D02*
X19378285Y-8321715D01*
X19321716Y-8321715D01*
X19321716Y-8378284D01*
X19378285Y-8378284D01*
X19778285Y-6178284D02*
X19778285Y-6121715D01*
X19721716Y-6121715D01*
X19721716Y-6178284D01*
X19778285Y-6178284D01*
X19978285Y-6178284D02*
X19978285Y-6121715D01*
X19921716Y-6121715D01*
X19921716Y-6178284D01*
X19978285Y-6178284D01*
X20178285Y-6178284D02*
X20178285Y-6121715D01*
X20121716Y-6121715D01*
X20121716Y-6178284D01*
X20178285Y-6178284D01*
X20378285Y-6178284D02*
X20378285Y-6121715D01*
X20321716Y-6121715D01*
X20321716Y-6178284D01*
X20378285Y-6178284D01*
X20778285Y-8378284D02*
X20778285Y-8321715D01*
X20721716Y-8321715D01*
X20721716Y-8378284D01*
X20778285Y-8378284D01*
X20978285Y-8378284D02*
X20978285Y-8321715D01*
X20921716Y-8321715D01*
X20921716Y-8378284D01*
X20978285Y-8378284D01*
X21178285Y-6178284D02*
X21178285Y-6121715D01*
X21121716Y-6121715D01*
X21121716Y-6178284D01*
X21178285Y-6178284D01*
X21178285Y-8378284D02*
X21178285Y-8321715D01*
X21121716Y-8321715D01*
X21121716Y-8378284D01*
X21178285Y-8378284D01*
X21978285Y-6178284D02*
X21978285Y-6121715D01*
X21921716Y-6121715D01*
X21921716Y-6178284D01*
X21978285Y-6178284D01*
X21978285Y-8378284D02*
X21978285Y-8321715D01*
X21921716Y-8321715D01*
X21921716Y-8378284D01*
X21978285Y-8378284D01*
X22178285Y-8378284D02*
X22178285Y-8321715D01*
X22121716Y-8321715D01*
X22121716Y-8378284D01*
X22178285Y-8378284D01*
X22378284Y-8378284D02*
X22378284Y-8321715D01*
X22321716Y-8321715D01*
X22321716Y-8378284D01*
X22378284Y-8378284D01*
X22778284Y-6178284D02*
X22778284Y-6121715D01*
X22721715Y-6121715D01*
X22721715Y-6178284D01*
X22778284Y-6178284D01*
X22978284Y-6178284D02*
X22978284Y-6121715D01*
X22921715Y-6121715D01*
X22921715Y-6178284D01*
X22978284Y-6178284D01*
X23178284Y-6178284D02*
X23178284Y-6121715D01*
X23121715Y-6121715D01*
X23121715Y-6178284D01*
X23178284Y-6178284D01*
X23378284Y-6178284D02*
X23378284Y-6121715D01*
X23321715Y-6121715D01*
X23321715Y-6178284D01*
X23378284Y-6178284D01*
X23778284Y-8378284D02*
X23778284Y-8321715D01*
X23721715Y-8321715D01*
X23721715Y-8378284D01*
X23778284Y-8378284D01*
X23978284Y-8378284D02*
X23978284Y-8321715D01*
X23921715Y-8321715D01*
X23921715Y-8378284D01*
X23978284Y-8378284D01*
X24178284Y-6178284D02*
X24178284Y-6121715D01*
X24121715Y-6121715D01*
X24121715Y-6178284D01*
X24178284Y-6178284D01*
X24178284Y-8378284D02*
X24178284Y-8321715D01*
X24121715Y-8321715D01*
X24121715Y-8378284D01*
X24178284Y-8378284D01*
X11000000Y-3860000D02*
X11050000Y-3810000D01*
X11000000Y-3760000D01*
X10950000Y-3810000D01*
X11000000Y-3860000D01*
X11000000Y-4114000D02*
X11050000Y-4064000D01*
X11000000Y-4014000D01*
X10950000Y-4064000D01*
X11000000Y-4114000D01*
X11000000Y-4368000D02*
X11050000Y-4318000D01*
X11000000Y-4268000D01*
X10950000Y-4318000D01*
X11000000Y-4368000D01*
X11000000Y-4622000D02*
X11050000Y-4572000D01*
X11000000Y-4522000D01*
X10950000Y-4572000D01*
X11000000Y-4622000D01*
D13*
X12118500Y-3920500D02*
X12237500Y-4039500D01*
X12237500Y-3920500D02*
X12118500Y-4039500D01*
X12237500Y-3980000D02*
G75*
G02*
X12118500Y-3980000I-59500J0D01*
G01*
X12118500Y-3980000D02*
G75*
G02*
X12237500Y-3980000I59500J0D01*
G01*
X12372500Y-3920500D02*
X12491500Y-4039500D01*
X12491500Y-3920500D02*
X12372500Y-4039500D01*
X12491500Y-3980000D02*
G75*
G02*
X12372500Y-3980000I-59500J0D01*
G01*
X12372500Y-3980000D02*
G75*
G02*
X12491500Y-3980000I59500J0D01*
G01*
X12626500Y-3920500D02*
X12745500Y-4039500D01*
X12745500Y-3920500D02*
X12626500Y-4039500D01*
X12745500Y-3980000D02*
G75*
G02*
X12626500Y-3980000I-59500J0D01*
G01*
X12626500Y-3980000D02*
G75*
G02*
X12745500Y-3980000I59500J0D01*
G01*
X12880500Y-3920500D02*
X12999500Y-4039500D01*
X12999500Y-3920500D02*
X12880500Y-4039500D01*
X12999500Y-3980000D02*
G75*
G02*
X12880500Y-3980000I-59500J0D01*
G01*
X12880500Y-3980000D02*
G75*
G02*
X12999500Y-3980000I59500J0D01*
G01*
D11*
X5258277Y-9313984D02*
X5258277Y-9113984D01*
X5258277Y-9113984D02*
X5305896Y-9113984D01*
X5305896Y-9113984D02*
X5334467Y-9123508D01*
X5334467Y-9123508D02*
X5353515Y-9142555D01*
X5353515Y-9142555D02*
X5363039Y-9161603D01*
X5363039Y-9161603D02*
X5372563Y-9199698D01*
X5372563Y-9199698D02*
X5372563Y-9228270D01*
X5372563Y-9228270D02*
X5363039Y-9266365D01*
X5363039Y-9266365D02*
X5353515Y-9285412D01*
X5353515Y-9285412D02*
X5334467Y-9304460D01*
X5334467Y-9304460D02*
X5305896Y-9313984D01*
X5305896Y-9313984D02*
X5258277Y-9313984D01*
X5458277Y-9313984D02*
X5458277Y-9180650D01*
X5458277Y-9218746D02*
X5467801Y-9199698D01*
X5467801Y-9199698D02*
X5477324Y-9190174D01*
X5477324Y-9190174D02*
X5496372Y-9180650D01*
X5496372Y-9180650D02*
X5515420Y-9180650D01*
X5582086Y-9313984D02*
X5582086Y-9180650D01*
X5582086Y-9113984D02*
X5572563Y-9123508D01*
X5572563Y-9123508D02*
X5582086Y-9133031D01*
X5582086Y-9133031D02*
X5591610Y-9123508D01*
X5591610Y-9123508D02*
X5582086Y-9113984D01*
X5582086Y-9113984D02*
X5582086Y-9133031D01*
X5705896Y-9313984D02*
X5686848Y-9304460D01*
X5686848Y-9304460D02*
X5677324Y-9285412D01*
X5677324Y-9285412D02*
X5677324Y-9113984D01*
X5810658Y-9313984D02*
X5791610Y-9304460D01*
X5791610Y-9304460D02*
X5782086Y-9285412D01*
X5782086Y-9285412D02*
X5782086Y-9113984D01*
X6039229Y-9313984D02*
X6039229Y-9113984D01*
X6039229Y-9113984D02*
X6105896Y-9256841D01*
X6105896Y-9256841D02*
X6172562Y-9113984D01*
X6172562Y-9113984D02*
X6172562Y-9313984D01*
X6353515Y-9313984D02*
X6353515Y-9209222D01*
X6353515Y-9209222D02*
X6343991Y-9190174D01*
X6343991Y-9190174D02*
X6324943Y-9180650D01*
X6324943Y-9180650D02*
X6286848Y-9180650D01*
X6286848Y-9180650D02*
X6267801Y-9190174D01*
X6353515Y-9304460D02*
X6334467Y-9313984D01*
X6334467Y-9313984D02*
X6286848Y-9313984D01*
X6286848Y-9313984D02*
X6267801Y-9304460D01*
X6267801Y-9304460D02*
X6258277Y-9285412D01*
X6258277Y-9285412D02*
X6258277Y-9266365D01*
X6258277Y-9266365D02*
X6267801Y-9247317D01*
X6267801Y-9247317D02*
X6286848Y-9237793D01*
X6286848Y-9237793D02*
X6334467Y-9237793D01*
X6334467Y-9237793D02*
X6353515Y-9228270D01*
X6448753Y-9180650D02*
X6448753Y-9380650D01*
X6448753Y-9190174D02*
X6467801Y-9180650D01*
X6467801Y-9180650D02*
X6505896Y-9180650D01*
X6505896Y-9180650D02*
X6524943Y-9190174D01*
X6524943Y-9190174D02*
X6534467Y-9199698D01*
X6534467Y-9199698D02*
X6543991Y-9218746D01*
X6543991Y-9218746D02*
X6543991Y-9275889D01*
X6543991Y-9275889D02*
X6534467Y-9294936D01*
X6534467Y-9294936D02*
X6524943Y-9304460D01*
X6524943Y-9304460D02*
X6505896Y-9313984D01*
X6505896Y-9313984D02*
X6467801Y-9313984D01*
X6467801Y-9313984D02*
X6448753Y-9304460D01*
X6629705Y-9294936D02*
X6639229Y-9304460D01*
X6639229Y-9304460D02*
X6629705Y-9313984D01*
X6629705Y-9313984D02*
X6620182Y-9304460D01*
X6620182Y-9304460D02*
X6629705Y-9294936D01*
X6629705Y-9294936D02*
X6629705Y-9313984D01*
X6629705Y-9190174D02*
X6639229Y-9199698D01*
X6639229Y-9199698D02*
X6629705Y-9209222D01*
X6629705Y-9209222D02*
X6620182Y-9199698D01*
X6620182Y-9199698D02*
X6629705Y-9190174D01*
X6629705Y-9190174D02*
X6629705Y-9209222D01*
D12*
X4977500Y-9632500D02*
X4997500Y-9652500D01*
X4997500Y-9632500D02*
X4977500Y-9652500D01*
D11*
X5296372Y-9533984D02*
X5315420Y-9533984D01*
X5315420Y-9533984D02*
X5334467Y-9543508D01*
X5334467Y-9543508D02*
X5343991Y-9553031D01*
X5343991Y-9553031D02*
X5353515Y-9572079D01*
X5353515Y-9572079D02*
X5363039Y-9610174D01*
X5363039Y-9610174D02*
X5363039Y-9657793D01*
X5363039Y-9657793D02*
X5353515Y-9695889D01*
X5353515Y-9695889D02*
X5343991Y-9714936D01*
X5343991Y-9714936D02*
X5334467Y-9724460D01*
X5334467Y-9724460D02*
X5315420Y-9733984D01*
X5315420Y-9733984D02*
X5296372Y-9733984D01*
X5296372Y-9733984D02*
X5277324Y-9724460D01*
X5277324Y-9724460D02*
X5267801Y-9714936D01*
X5267801Y-9714936D02*
X5258277Y-9695889D01*
X5258277Y-9695889D02*
X5248753Y-9657793D01*
X5248753Y-9657793D02*
X5248753Y-9610174D01*
X5248753Y-9610174D02*
X5258277Y-9572079D01*
X5258277Y-9572079D02*
X5267801Y-9553031D01*
X5267801Y-9553031D02*
X5277324Y-9543508D01*
X5277324Y-9543508D02*
X5296372Y-9533984D01*
X5448753Y-9714936D02*
X5458277Y-9724460D01*
X5458277Y-9724460D02*
X5448753Y-9733984D01*
X5448753Y-9733984D02*
X5439229Y-9724460D01*
X5439229Y-9724460D02*
X5448753Y-9714936D01*
X5448753Y-9714936D02*
X5448753Y-9733984D01*
X5534467Y-9553031D02*
X5543991Y-9543508D01*
X5543991Y-9543508D02*
X5563039Y-9533984D01*
X5563039Y-9533984D02*
X5610658Y-9533984D01*
X5610658Y-9533984D02*
X5629705Y-9543508D01*
X5629705Y-9543508D02*
X5639229Y-9553031D01*
X5639229Y-9553031D02*
X5648753Y-9572079D01*
X5648753Y-9572079D02*
X5648753Y-9591127D01*
X5648753Y-9591127D02*
X5639229Y-9619698D01*
X5639229Y-9619698D02*
X5524944Y-9733984D01*
X5524944Y-9733984D02*
X5648753Y-9733984D01*
X5772562Y-9533984D02*
X5791610Y-9533984D01*
X5791610Y-9533984D02*
X5810658Y-9543508D01*
X5810658Y-9543508D02*
X5820182Y-9553031D01*
X5820182Y-9553031D02*
X5829705Y-9572079D01*
X5829705Y-9572079D02*
X5839229Y-9610174D01*
X5839229Y-9610174D02*
X5839229Y-9657793D01*
X5839229Y-9657793D02*
X5829705Y-9695889D01*
X5829705Y-9695889D02*
X5820182Y-9714936D01*
X5820182Y-9714936D02*
X5810658Y-9724460D01*
X5810658Y-9724460D02*
X5791610Y-9733984D01*
X5791610Y-9733984D02*
X5772562Y-9733984D01*
X5772562Y-9733984D02*
X5753515Y-9724460D01*
X5753515Y-9724460D02*
X5743991Y-9714936D01*
X5743991Y-9714936D02*
X5734467Y-9695889D01*
X5734467Y-9695889D02*
X5724943Y-9657793D01*
X5724943Y-9657793D02*
X5724943Y-9610174D01*
X5724943Y-9610174D02*
X5734467Y-9572079D01*
X5734467Y-9572079D02*
X5743991Y-9553031D01*
X5743991Y-9553031D02*
X5753515Y-9543508D01*
X5753515Y-9543508D02*
X5772562Y-9533984D01*
X5963039Y-9533984D02*
X5982086Y-9533984D01*
X5982086Y-9533984D02*
X6001134Y-9543508D01*
X6001134Y-9543508D02*
X6010658Y-9553031D01*
X6010658Y-9553031D02*
X6020182Y-9572079D01*
X6020182Y-9572079D02*
X6029705Y-9610174D01*
X6029705Y-9610174D02*
X6029705Y-9657793D01*
X6029705Y-9657793D02*
X6020182Y-9695889D01*
X6020182Y-9695889D02*
X6010658Y-9714936D01*
X6010658Y-9714936D02*
X6001134Y-9724460D01*
X6001134Y-9724460D02*
X5982086Y-9733984D01*
X5982086Y-9733984D02*
X5963039Y-9733984D01*
X5963039Y-9733984D02*
X5943991Y-9724460D01*
X5943991Y-9724460D02*
X5934467Y-9714936D01*
X5934467Y-9714936D02*
X5924943Y-9695889D01*
X5924943Y-9695889D02*
X5915420Y-9657793D01*
X5915420Y-9657793D02*
X5915420Y-9610174D01*
X5915420Y-9610174D02*
X5924943Y-9572079D01*
X5924943Y-9572079D02*
X5934467Y-9553031D01*
X5934467Y-9553031D02*
X5943991Y-9543508D01*
X5943991Y-9543508D02*
X5963039Y-9533984D01*
X6115420Y-9733984D02*
X6115420Y-9600650D01*
X6115420Y-9619698D02*
X6124943Y-9610174D01*
X6124943Y-9610174D02*
X6143991Y-9600650D01*
X6143991Y-9600650D02*
X6172563Y-9600650D01*
X6172563Y-9600650D02*
X6191610Y-9610174D01*
X6191610Y-9610174D02*
X6201134Y-9629222D01*
X6201134Y-9629222D02*
X6201134Y-9733984D01*
X6201134Y-9629222D02*
X6210658Y-9610174D01*
X6210658Y-9610174D02*
X6229705Y-9600650D01*
X6229705Y-9600650D02*
X6258277Y-9600650D01*
X6258277Y-9600650D02*
X6277324Y-9610174D01*
X6277324Y-9610174D02*
X6286848Y-9629222D01*
X6286848Y-9629222D02*
X6286848Y-9733984D01*
X6382086Y-9733984D02*
X6382086Y-9600650D01*
X6382086Y-9619698D02*
X6391610Y-9610174D01*
X6391610Y-9610174D02*
X6410658Y-9600650D01*
X6410658Y-9600650D02*
X6439229Y-9600650D01*
X6439229Y-9600650D02*
X6458277Y-9610174D01*
X6458277Y-9610174D02*
X6467801Y-9629222D01*
X6467801Y-9629222D02*
X6467801Y-9733984D01*
X6467801Y-9629222D02*
X6477324Y-9610174D01*
X6477324Y-9610174D02*
X6496372Y-9600650D01*
X6496372Y-9600650D02*
X6524943Y-9600650D01*
X6524943Y-9600650D02*
X6543991Y-9610174D01*
X6543991Y-9610174D02*
X6553515Y-9629222D01*
X6553515Y-9629222D02*
X6553515Y-9733984D01*
X6943991Y-9524460D02*
X6772563Y-9781603D01*
X7201134Y-9533984D02*
X7220182Y-9533984D01*
X7220182Y-9533984D02*
X7239229Y-9543508D01*
X7239229Y-9543508D02*
X7248753Y-9553031D01*
X7248753Y-9553031D02*
X7258277Y-9572079D01*
X7258277Y-9572079D02*
X7267801Y-9610174D01*
X7267801Y-9610174D02*
X7267801Y-9657793D01*
X7267801Y-9657793D02*
X7258277Y-9695889D01*
X7258277Y-9695889D02*
X7248753Y-9714936D01*
X7248753Y-9714936D02*
X7239229Y-9724460D01*
X7239229Y-9724460D02*
X7220182Y-9733984D01*
X7220182Y-9733984D02*
X7201134Y-9733984D01*
X7201134Y-9733984D02*
X7182086Y-9724460D01*
X7182086Y-9724460D02*
X7172563Y-9714936D01*
X7172563Y-9714936D02*
X7163039Y-9695889D01*
X7163039Y-9695889D02*
X7153515Y-9657793D01*
X7153515Y-9657793D02*
X7153515Y-9610174D01*
X7153515Y-9610174D02*
X7163039Y-9572079D01*
X7163039Y-9572079D02*
X7172563Y-9553031D01*
X7172563Y-9553031D02*
X7182086Y-9543508D01*
X7182086Y-9543508D02*
X7201134Y-9533984D01*
X7353515Y-9714936D02*
X7363039Y-9724460D01*
X7363039Y-9724460D02*
X7353515Y-9733984D01*
X7353515Y-9733984D02*
X7343991Y-9724460D01*
X7343991Y-9724460D02*
X7353515Y-9714936D01*
X7353515Y-9714936D02*
X7353515Y-9733984D01*
X7486848Y-9533984D02*
X7505896Y-9533984D01*
X7505896Y-9533984D02*
X7524944Y-9543508D01*
X7524944Y-9543508D02*
X7534467Y-9553031D01*
X7534467Y-9553031D02*
X7543991Y-9572079D01*
X7543991Y-9572079D02*
X7553515Y-9610174D01*
X7553515Y-9610174D02*
X7553515Y-9657793D01*
X7553515Y-9657793D02*
X7543991Y-9695889D01*
X7543991Y-9695889D02*
X7534467Y-9714936D01*
X7534467Y-9714936D02*
X7524944Y-9724460D01*
X7524944Y-9724460D02*
X7505896Y-9733984D01*
X7505896Y-9733984D02*
X7486848Y-9733984D01*
X7486848Y-9733984D02*
X7467801Y-9724460D01*
X7467801Y-9724460D02*
X7458277Y-9714936D01*
X7458277Y-9714936D02*
X7448753Y-9695889D01*
X7448753Y-9695889D02*
X7439229Y-9657793D01*
X7439229Y-9657793D02*
X7439229Y-9610174D01*
X7439229Y-9610174D02*
X7448753Y-9572079D01*
X7448753Y-9572079D02*
X7458277Y-9553031D01*
X7458277Y-9553031D02*
X7467801Y-9543508D01*
X7467801Y-9543508D02*
X7486848Y-9533984D01*
X7677325Y-9533984D02*
X7696372Y-9533984D01*
X7696372Y-9533984D02*
X7715420Y-9543508D01*
X7715420Y-9543508D02*
X7724944Y-9553031D01*
X7724944Y-9553031D02*
X7734467Y-9572079D01*
X7734467Y-9572079D02*
X7743991Y-9610174D01*
X7743991Y-9610174D02*
X7743991Y-9657793D01*
X7743991Y-9657793D02*
X7734467Y-9695889D01*
X7734467Y-9695889D02*
X7724944Y-9714936D01*
X7724944Y-9714936D02*
X7715420Y-9724460D01*
X7715420Y-9724460D02*
X7696372Y-9733984D01*
X7696372Y-9733984D02*
X7677325Y-9733984D01*
X7677325Y-9733984D02*
X7658277Y-9724460D01*
X7658277Y-9724460D02*
X7648753Y-9714936D01*
X7648753Y-9714936D02*
X7639229Y-9695889D01*
X7639229Y-9695889D02*
X7629706Y-9657793D01*
X7629706Y-9657793D02*
X7629706Y-9610174D01*
X7629706Y-9610174D02*
X7639229Y-9572079D01*
X7639229Y-9572079D02*
X7648753Y-9553031D01*
X7648753Y-9553031D02*
X7658277Y-9543508D01*
X7658277Y-9543508D02*
X7677325Y-9533984D01*
X7810658Y-9533984D02*
X7943991Y-9533984D01*
X7943991Y-9533984D02*
X7858277Y-9733984D01*
X8029706Y-9733984D02*
X8067801Y-9733984D01*
X8067801Y-9733984D02*
X8086848Y-9724460D01*
X8086848Y-9724460D02*
X8096372Y-9714936D01*
X8096372Y-9714936D02*
X8115420Y-9686365D01*
X8115420Y-9686365D02*
X8124944Y-9648270D01*
X8124944Y-9648270D02*
X8124944Y-9572079D01*
X8124944Y-9572079D02*
X8115420Y-9553031D01*
X8115420Y-9553031D02*
X8105896Y-9543508D01*
X8105896Y-9543508D02*
X8086848Y-9533984D01*
X8086848Y-9533984D02*
X8048753Y-9533984D01*
X8048753Y-9533984D02*
X8029706Y-9543508D01*
X8029706Y-9543508D02*
X8020182Y-9553031D01*
X8020182Y-9553031D02*
X8010658Y-9572079D01*
X8010658Y-9572079D02*
X8010658Y-9619698D01*
X8010658Y-9619698D02*
X8020182Y-9638746D01*
X8020182Y-9638746D02*
X8029706Y-9648270D01*
X8029706Y-9648270D02*
X8048753Y-9657793D01*
X8048753Y-9657793D02*
X8086848Y-9657793D01*
X8086848Y-9657793D02*
X8105896Y-9648270D01*
X8105896Y-9648270D02*
X8115420Y-9638746D01*
X8115420Y-9638746D02*
X8124944Y-9619698D01*
X8201134Y-9533984D02*
X8201134Y-9572079D01*
X8277325Y-9533984D02*
X8277325Y-9572079D01*
X8572563Y-9810174D02*
X8563039Y-9800650D01*
X8563039Y-9800650D02*
X8543991Y-9772079D01*
X8543991Y-9772079D02*
X8534468Y-9753031D01*
X8534468Y-9753031D02*
X8524944Y-9724460D01*
X8524944Y-9724460D02*
X8515420Y-9676841D01*
X8515420Y-9676841D02*
X8515420Y-9638746D01*
X8515420Y-9638746D02*
X8524944Y-9591127D01*
X8524944Y-9591127D02*
X8534468Y-9562555D01*
X8534468Y-9562555D02*
X8543991Y-9543508D01*
X8543991Y-9543508D02*
X8563039Y-9514936D01*
X8563039Y-9514936D02*
X8572563Y-9505412D01*
X8753515Y-9733984D02*
X8639230Y-9733984D01*
X8696372Y-9733984D02*
X8696372Y-9533984D01*
X8696372Y-9533984D02*
X8677325Y-9562555D01*
X8677325Y-9562555D02*
X8658277Y-9581603D01*
X8658277Y-9581603D02*
X8639230Y-9591127D01*
X8829706Y-9553031D02*
X8839230Y-9543508D01*
X8839230Y-9543508D02*
X8858277Y-9533984D01*
X8858277Y-9533984D02*
X8905896Y-9533984D01*
X8905896Y-9533984D02*
X8924944Y-9543508D01*
X8924944Y-9543508D02*
X8934468Y-9553031D01*
X8934468Y-9553031D02*
X8943991Y-9572079D01*
X8943991Y-9572079D02*
X8943991Y-9591127D01*
X8943991Y-9591127D02*
X8934468Y-9619698D01*
X8934468Y-9619698D02*
X8820182Y-9733984D01*
X8820182Y-9733984D02*
X8943991Y-9733984D01*
X9182087Y-9733984D02*
X9182087Y-9533984D01*
X9267801Y-9733984D02*
X9267801Y-9629222D01*
X9267801Y-9629222D02*
X9258277Y-9610174D01*
X9258277Y-9610174D02*
X9239230Y-9600650D01*
X9239230Y-9600650D02*
X9210658Y-9600650D01*
X9210658Y-9600650D02*
X9191611Y-9610174D01*
X9191611Y-9610174D02*
X9182087Y-9619698D01*
X9391611Y-9733984D02*
X9372563Y-9724460D01*
X9372563Y-9724460D02*
X9363039Y-9714936D01*
X9363039Y-9714936D02*
X9353515Y-9695889D01*
X9353515Y-9695889D02*
X9353515Y-9638746D01*
X9353515Y-9638746D02*
X9363039Y-9619698D01*
X9363039Y-9619698D02*
X9372563Y-9610174D01*
X9372563Y-9610174D02*
X9391611Y-9600650D01*
X9391611Y-9600650D02*
X9420182Y-9600650D01*
X9420182Y-9600650D02*
X9439230Y-9610174D01*
X9439230Y-9610174D02*
X9448753Y-9619698D01*
X9448753Y-9619698D02*
X9458277Y-9638746D01*
X9458277Y-9638746D02*
X9458277Y-9695889D01*
X9458277Y-9695889D02*
X9448753Y-9714936D01*
X9448753Y-9714936D02*
X9439230Y-9724460D01*
X9439230Y-9724460D02*
X9420182Y-9733984D01*
X9420182Y-9733984D02*
X9391611Y-9733984D01*
X9572563Y-9733984D02*
X9553515Y-9724460D01*
X9553515Y-9724460D02*
X9543992Y-9705412D01*
X9543992Y-9705412D02*
X9543992Y-9533984D01*
X9724944Y-9724460D02*
X9705896Y-9733984D01*
X9705896Y-9733984D02*
X9667801Y-9733984D01*
X9667801Y-9733984D02*
X9648753Y-9724460D01*
X9648753Y-9724460D02*
X9639230Y-9705412D01*
X9639230Y-9705412D02*
X9639230Y-9629222D01*
X9639230Y-9629222D02*
X9648753Y-9610174D01*
X9648753Y-9610174D02*
X9667801Y-9600650D01*
X9667801Y-9600650D02*
X9705896Y-9600650D01*
X9705896Y-9600650D02*
X9724944Y-9610174D01*
X9724944Y-9610174D02*
X9734468Y-9629222D01*
X9734468Y-9629222D02*
X9734468Y-9648270D01*
X9734468Y-9648270D02*
X9639230Y-9667317D01*
X9810658Y-9724460D02*
X9829706Y-9733984D01*
X9829706Y-9733984D02*
X9867801Y-9733984D01*
X9867801Y-9733984D02*
X9886849Y-9724460D01*
X9886849Y-9724460D02*
X9896373Y-9705412D01*
X9896373Y-9705412D02*
X9896373Y-9695889D01*
X9896373Y-9695889D02*
X9886849Y-9676841D01*
X9886849Y-9676841D02*
X9867801Y-9667317D01*
X9867801Y-9667317D02*
X9839230Y-9667317D01*
X9839230Y-9667317D02*
X9820182Y-9657793D01*
X9820182Y-9657793D02*
X9810658Y-9638746D01*
X9810658Y-9638746D02*
X9810658Y-9629222D01*
X9810658Y-9629222D02*
X9820182Y-9610174D01*
X9820182Y-9610174D02*
X9839230Y-9600650D01*
X9839230Y-9600650D02*
X9867801Y-9600650D01*
X9867801Y-9600650D02*
X9886849Y-9610174D01*
X9963039Y-9810174D02*
X9972563Y-9800650D01*
X9972563Y-9800650D02*
X9991611Y-9772079D01*
X9991611Y-9772079D02*
X10001134Y-9753031D01*
X10001134Y-9753031D02*
X10010658Y-9724460D01*
X10010658Y-9724460D02*
X10020182Y-9676841D01*
X10020182Y-9676841D02*
X10020182Y-9638746D01*
X10020182Y-9638746D02*
X10010658Y-9591127D01*
X10010658Y-9591127D02*
X10001134Y-9562555D01*
X10001134Y-9562555D02*
X9991611Y-9543508D01*
X9991611Y-9543508D02*
X9972563Y-9514936D01*
X9972563Y-9514936D02*
X9963039Y-9505412D01*
D12*
X4997500Y-9906500D02*
G75*
G02*
X4967500Y-9906500I-15000J0D01*
G01*
X4967500Y-9906500D02*
G75*
G02*
X4997500Y-9906500I15000J0D01*
G01*
D11*
X5296372Y-9797984D02*
X5315420Y-9797984D01*
X5315420Y-9797984D02*
X5334467Y-9807508D01*
X5334467Y-9807508D02*
X5343991Y-9817031D01*
X5343991Y-9817031D02*
X5353515Y-9836079D01*
X5353515Y-9836079D02*
X5363039Y-9874174D01*
X5363039Y-9874174D02*
X5363039Y-9921793D01*
X5363039Y-9921793D02*
X5353515Y-9959889D01*
X5353515Y-9959889D02*
X5343991Y-9978936D01*
X5343991Y-9978936D02*
X5334467Y-9988460D01*
X5334467Y-9988460D02*
X5315420Y-9997984D01*
X5315420Y-9997984D02*
X5296372Y-9997984D01*
X5296372Y-9997984D02*
X5277324Y-9988460D01*
X5277324Y-9988460D02*
X5267801Y-9978936D01*
X5267801Y-9978936D02*
X5258277Y-9959889D01*
X5258277Y-9959889D02*
X5248753Y-9921793D01*
X5248753Y-9921793D02*
X5248753Y-9874174D01*
X5248753Y-9874174D02*
X5258277Y-9836079D01*
X5258277Y-9836079D02*
X5267801Y-9817031D01*
X5267801Y-9817031D02*
X5277324Y-9807508D01*
X5277324Y-9807508D02*
X5296372Y-9797984D01*
X5448753Y-9978936D02*
X5458277Y-9988460D01*
X5458277Y-9988460D02*
X5448753Y-9997984D01*
X5448753Y-9997984D02*
X5439229Y-9988460D01*
X5439229Y-9988460D02*
X5448753Y-9978936D01*
X5448753Y-9978936D02*
X5448753Y-9997984D01*
X5524944Y-9797984D02*
X5648753Y-9797984D01*
X5648753Y-9797984D02*
X5582086Y-9874174D01*
X5582086Y-9874174D02*
X5610658Y-9874174D01*
X5610658Y-9874174D02*
X5629705Y-9883698D01*
X5629705Y-9883698D02*
X5639229Y-9893222D01*
X5639229Y-9893222D02*
X5648753Y-9912270D01*
X5648753Y-9912270D02*
X5648753Y-9959889D01*
X5648753Y-9959889D02*
X5639229Y-9978936D01*
X5639229Y-9978936D02*
X5629705Y-9988460D01*
X5629705Y-9988460D02*
X5610658Y-9997984D01*
X5610658Y-9997984D02*
X5553515Y-9997984D01*
X5553515Y-9997984D02*
X5534467Y-9988460D01*
X5534467Y-9988460D02*
X5524944Y-9978936D01*
X5772562Y-9797984D02*
X5791610Y-9797984D01*
X5791610Y-9797984D02*
X5810658Y-9807508D01*
X5810658Y-9807508D02*
X5820182Y-9817031D01*
X5820182Y-9817031D02*
X5829705Y-9836079D01*
X5829705Y-9836079D02*
X5839229Y-9874174D01*
X5839229Y-9874174D02*
X5839229Y-9921793D01*
X5839229Y-9921793D02*
X5829705Y-9959889D01*
X5829705Y-9959889D02*
X5820182Y-9978936D01*
X5820182Y-9978936D02*
X5810658Y-9988460D01*
X5810658Y-9988460D02*
X5791610Y-9997984D01*
X5791610Y-9997984D02*
X5772562Y-9997984D01*
X5772562Y-9997984D02*
X5753515Y-9988460D01*
X5753515Y-9988460D02*
X5743991Y-9978936D01*
X5743991Y-9978936D02*
X5734467Y-9959889D01*
X5734467Y-9959889D02*
X5724943Y-9921793D01*
X5724943Y-9921793D02*
X5724943Y-9874174D01*
X5724943Y-9874174D02*
X5734467Y-9836079D01*
X5734467Y-9836079D02*
X5743991Y-9817031D01*
X5743991Y-9817031D02*
X5753515Y-9807508D01*
X5753515Y-9807508D02*
X5772562Y-9797984D01*
X5963039Y-9797984D02*
X5982086Y-9797984D01*
X5982086Y-9797984D02*
X6001134Y-9807508D01*
X6001134Y-9807508D02*
X6010658Y-9817031D01*
X6010658Y-9817031D02*
X6020182Y-9836079D01*
X6020182Y-9836079D02*
X6029705Y-9874174D01*
X6029705Y-9874174D02*
X6029705Y-9921793D01*
X6029705Y-9921793D02*
X6020182Y-9959889D01*
X6020182Y-9959889D02*
X6010658Y-9978936D01*
X6010658Y-9978936D02*
X6001134Y-9988460D01*
X6001134Y-9988460D02*
X5982086Y-9997984D01*
X5982086Y-9997984D02*
X5963039Y-9997984D01*
X5963039Y-9997984D02*
X5943991Y-9988460D01*
X5943991Y-9988460D02*
X5934467Y-9978936D01*
X5934467Y-9978936D02*
X5924943Y-9959889D01*
X5924943Y-9959889D02*
X5915420Y-9921793D01*
X5915420Y-9921793D02*
X5915420Y-9874174D01*
X5915420Y-9874174D02*
X5924943Y-9836079D01*
X5924943Y-9836079D02*
X5934467Y-9817031D01*
X5934467Y-9817031D02*
X5943991Y-9807508D01*
X5943991Y-9807508D02*
X5963039Y-9797984D01*
X6115420Y-9997984D02*
X6115420Y-9864650D01*
X6115420Y-9883698D02*
X6124943Y-9874174D01*
X6124943Y-9874174D02*
X6143991Y-9864650D01*
X6143991Y-9864650D02*
X6172563Y-9864650D01*
X6172563Y-9864650D02*
X6191610Y-9874174D01*
X6191610Y-9874174D02*
X6201134Y-9893222D01*
X6201134Y-9893222D02*
X6201134Y-9997984D01*
X6201134Y-9893222D02*
X6210658Y-9874174D01*
X6210658Y-9874174D02*
X6229705Y-9864650D01*
X6229705Y-9864650D02*
X6258277Y-9864650D01*
X6258277Y-9864650D02*
X6277324Y-9874174D01*
X6277324Y-9874174D02*
X6286848Y-9893222D01*
X6286848Y-9893222D02*
X6286848Y-9997984D01*
X6382086Y-9997984D02*
X6382086Y-9864650D01*
X6382086Y-9883698D02*
X6391610Y-9874174D01*
X6391610Y-9874174D02*
X6410658Y-9864650D01*
X6410658Y-9864650D02*
X6439229Y-9864650D01*
X6439229Y-9864650D02*
X6458277Y-9874174D01*
X6458277Y-9874174D02*
X6467801Y-9893222D01*
X6467801Y-9893222D02*
X6467801Y-9997984D01*
X6467801Y-9893222D02*
X6477324Y-9874174D01*
X6477324Y-9874174D02*
X6496372Y-9864650D01*
X6496372Y-9864650D02*
X6524943Y-9864650D01*
X6524943Y-9864650D02*
X6543991Y-9874174D01*
X6543991Y-9874174D02*
X6553515Y-9893222D01*
X6553515Y-9893222D02*
X6553515Y-9997984D01*
X6943991Y-9788460D02*
X6772563Y-10045603D01*
X7201134Y-9797984D02*
X7220182Y-9797984D01*
X7220182Y-9797984D02*
X7239229Y-9807508D01*
X7239229Y-9807508D02*
X7248753Y-9817031D01*
X7248753Y-9817031D02*
X7258277Y-9836079D01*
X7258277Y-9836079D02*
X7267801Y-9874174D01*
X7267801Y-9874174D02*
X7267801Y-9921793D01*
X7267801Y-9921793D02*
X7258277Y-9959889D01*
X7258277Y-9959889D02*
X7248753Y-9978936D01*
X7248753Y-9978936D02*
X7239229Y-9988460D01*
X7239229Y-9988460D02*
X7220182Y-9997984D01*
X7220182Y-9997984D02*
X7201134Y-9997984D01*
X7201134Y-9997984D02*
X7182086Y-9988460D01*
X7182086Y-9988460D02*
X7172563Y-9978936D01*
X7172563Y-9978936D02*
X7163039Y-9959889D01*
X7163039Y-9959889D02*
X7153515Y-9921793D01*
X7153515Y-9921793D02*
X7153515Y-9874174D01*
X7153515Y-9874174D02*
X7163039Y-9836079D01*
X7163039Y-9836079D02*
X7172563Y-9817031D01*
X7172563Y-9817031D02*
X7182086Y-9807508D01*
X7182086Y-9807508D02*
X7201134Y-9797984D01*
X7353515Y-9978936D02*
X7363039Y-9988460D01*
X7363039Y-9988460D02*
X7353515Y-9997984D01*
X7353515Y-9997984D02*
X7343991Y-9988460D01*
X7343991Y-9988460D02*
X7353515Y-9978936D01*
X7353515Y-9978936D02*
X7353515Y-9997984D01*
X7486848Y-9797984D02*
X7505896Y-9797984D01*
X7505896Y-9797984D02*
X7524944Y-9807508D01*
X7524944Y-9807508D02*
X7534467Y-9817031D01*
X7534467Y-9817031D02*
X7543991Y-9836079D01*
X7543991Y-9836079D02*
X7553515Y-9874174D01*
X7553515Y-9874174D02*
X7553515Y-9921793D01*
X7553515Y-9921793D02*
X7543991Y-9959889D01*
X7543991Y-9959889D02*
X7534467Y-9978936D01*
X7534467Y-9978936D02*
X7524944Y-9988460D01*
X7524944Y-9988460D02*
X7505896Y-9997984D01*
X7505896Y-9997984D02*
X7486848Y-9997984D01*
X7486848Y-9997984D02*
X7467801Y-9988460D01*
X7467801Y-9988460D02*
X7458277Y-9978936D01*
X7458277Y-9978936D02*
X7448753Y-9959889D01*
X7448753Y-9959889D02*
X7439229Y-9921793D01*
X7439229Y-9921793D02*
X7439229Y-9874174D01*
X7439229Y-9874174D02*
X7448753Y-9836079D01*
X7448753Y-9836079D02*
X7458277Y-9817031D01*
X7458277Y-9817031D02*
X7467801Y-9807508D01*
X7467801Y-9807508D02*
X7486848Y-9797984D01*
X7743991Y-9997984D02*
X7629706Y-9997984D01*
X7686848Y-9997984D02*
X7686848Y-9797984D01*
X7686848Y-9797984D02*
X7667801Y-9826555D01*
X7667801Y-9826555D02*
X7648753Y-9845603D01*
X7648753Y-9845603D02*
X7629706Y-9855127D01*
X7934467Y-9997984D02*
X7820182Y-9997984D01*
X7877325Y-9997984D02*
X7877325Y-9797984D01*
X7877325Y-9797984D02*
X7858277Y-9826555D01*
X7858277Y-9826555D02*
X7839229Y-9845603D01*
X7839229Y-9845603D02*
X7820182Y-9855127D01*
X8048753Y-9883698D02*
X8029706Y-9874174D01*
X8029706Y-9874174D02*
X8020182Y-9864650D01*
X8020182Y-9864650D02*
X8010658Y-9845603D01*
X8010658Y-9845603D02*
X8010658Y-9836079D01*
X8010658Y-9836079D02*
X8020182Y-9817031D01*
X8020182Y-9817031D02*
X8029706Y-9807508D01*
X8029706Y-9807508D02*
X8048753Y-9797984D01*
X8048753Y-9797984D02*
X8086848Y-9797984D01*
X8086848Y-9797984D02*
X8105896Y-9807508D01*
X8105896Y-9807508D02*
X8115420Y-9817031D01*
X8115420Y-9817031D02*
X8124944Y-9836079D01*
X8124944Y-9836079D02*
X8124944Y-9845603D01*
X8124944Y-9845603D02*
X8115420Y-9864650D01*
X8115420Y-9864650D02*
X8105896Y-9874174D01*
X8105896Y-9874174D02*
X8086848Y-9883698D01*
X8086848Y-9883698D02*
X8048753Y-9883698D01*
X8048753Y-9883698D02*
X8029706Y-9893222D01*
X8029706Y-9893222D02*
X8020182Y-9902746D01*
X8020182Y-9902746D02*
X8010658Y-9921793D01*
X8010658Y-9921793D02*
X8010658Y-9959889D01*
X8010658Y-9959889D02*
X8020182Y-9978936D01*
X8020182Y-9978936D02*
X8029706Y-9988460D01*
X8029706Y-9988460D02*
X8048753Y-9997984D01*
X8048753Y-9997984D02*
X8086848Y-9997984D01*
X8086848Y-9997984D02*
X8105896Y-9988460D01*
X8105896Y-9988460D02*
X8115420Y-9978936D01*
X8115420Y-9978936D02*
X8124944Y-9959889D01*
X8124944Y-9959889D02*
X8124944Y-9921793D01*
X8124944Y-9921793D02*
X8115420Y-9902746D01*
X8115420Y-9902746D02*
X8105896Y-9893222D01*
X8105896Y-9893222D02*
X8086848Y-9883698D01*
X8201134Y-9797984D02*
X8201134Y-9836079D01*
X8277325Y-9797984D02*
X8277325Y-9836079D01*
X8572563Y-10074174D02*
X8563039Y-10064650D01*
X8563039Y-10064650D02*
X8543991Y-10036079D01*
X8543991Y-10036079D02*
X8534468Y-10017031D01*
X8534468Y-10017031D02*
X8524944Y-9988460D01*
X8524944Y-9988460D02*
X8515420Y-9940841D01*
X8515420Y-9940841D02*
X8515420Y-9902746D01*
X8515420Y-9902746D02*
X8524944Y-9855127D01*
X8524944Y-9855127D02*
X8534468Y-9826555D01*
X8534468Y-9826555D02*
X8543991Y-9807508D01*
X8543991Y-9807508D02*
X8563039Y-9778936D01*
X8563039Y-9778936D02*
X8572563Y-9769412D01*
X8658277Y-9997984D02*
X8696372Y-9997984D01*
X8696372Y-9997984D02*
X8715420Y-9988460D01*
X8715420Y-9988460D02*
X8724944Y-9978936D01*
X8724944Y-9978936D02*
X8743991Y-9950365D01*
X8743991Y-9950365D02*
X8753515Y-9912270D01*
X8753515Y-9912270D02*
X8753515Y-9836079D01*
X8753515Y-9836079D02*
X8743991Y-9817031D01*
X8743991Y-9817031D02*
X8734468Y-9807508D01*
X8734468Y-9807508D02*
X8715420Y-9797984D01*
X8715420Y-9797984D02*
X8677325Y-9797984D01*
X8677325Y-9797984D02*
X8658277Y-9807508D01*
X8658277Y-9807508D02*
X8648753Y-9817031D01*
X8648753Y-9817031D02*
X8639230Y-9836079D01*
X8639230Y-9836079D02*
X8639230Y-9883698D01*
X8639230Y-9883698D02*
X8648753Y-9902746D01*
X8648753Y-9902746D02*
X8658277Y-9912270D01*
X8658277Y-9912270D02*
X8677325Y-9921793D01*
X8677325Y-9921793D02*
X8715420Y-9921793D01*
X8715420Y-9921793D02*
X8734468Y-9912270D01*
X8734468Y-9912270D02*
X8743991Y-9902746D01*
X8743991Y-9902746D02*
X8753515Y-9883698D01*
X8820182Y-9797984D02*
X8943991Y-9797984D01*
X8943991Y-9797984D02*
X8877325Y-9874174D01*
X8877325Y-9874174D02*
X8905896Y-9874174D01*
X8905896Y-9874174D02*
X8924944Y-9883698D01*
X8924944Y-9883698D02*
X8934468Y-9893222D01*
X8934468Y-9893222D02*
X8943991Y-9912270D01*
X8943991Y-9912270D02*
X8943991Y-9959889D01*
X8943991Y-9959889D02*
X8934468Y-9978936D01*
X8934468Y-9978936D02*
X8924944Y-9988460D01*
X8924944Y-9988460D02*
X8905896Y-9997984D01*
X8905896Y-9997984D02*
X8848753Y-9997984D01*
X8848753Y-9997984D02*
X8829706Y-9988460D01*
X8829706Y-9988460D02*
X8820182Y-9978936D01*
X9182087Y-9997984D02*
X9182087Y-9797984D01*
X9267801Y-9997984D02*
X9267801Y-9893222D01*
X9267801Y-9893222D02*
X9258277Y-9874174D01*
X9258277Y-9874174D02*
X9239230Y-9864650D01*
X9239230Y-9864650D02*
X9210658Y-9864650D01*
X9210658Y-9864650D02*
X9191611Y-9874174D01*
X9191611Y-9874174D02*
X9182087Y-9883698D01*
X9391611Y-9997984D02*
X9372563Y-9988460D01*
X9372563Y-9988460D02*
X9363039Y-9978936D01*
X9363039Y-9978936D02*
X9353515Y-9959889D01*
X9353515Y-9959889D02*
X9353515Y-9902746D01*
X9353515Y-9902746D02*
X9363039Y-9883698D01*
X9363039Y-9883698D02*
X9372563Y-9874174D01*
X9372563Y-9874174D02*
X9391611Y-9864650D01*
X9391611Y-9864650D02*
X9420182Y-9864650D01*
X9420182Y-9864650D02*
X9439230Y-9874174D01*
X9439230Y-9874174D02*
X9448753Y-9883698D01*
X9448753Y-9883698D02*
X9458277Y-9902746D01*
X9458277Y-9902746D02*
X9458277Y-9959889D01*
X9458277Y-9959889D02*
X9448753Y-9978936D01*
X9448753Y-9978936D02*
X9439230Y-9988460D01*
X9439230Y-9988460D02*
X9420182Y-9997984D01*
X9420182Y-9997984D02*
X9391611Y-9997984D01*
X9572563Y-9997984D02*
X9553515Y-9988460D01*
X9553515Y-9988460D02*
X9543992Y-9969412D01*
X9543992Y-9969412D02*
X9543992Y-9797984D01*
X9724944Y-9988460D02*
X9705896Y-9997984D01*
X9705896Y-9997984D02*
X9667801Y-9997984D01*
X9667801Y-9997984D02*
X9648753Y-9988460D01*
X9648753Y-9988460D02*
X9639230Y-9969412D01*
X9639230Y-9969412D02*
X9639230Y-9893222D01*
X9639230Y-9893222D02*
X9648753Y-9874174D01*
X9648753Y-9874174D02*
X9667801Y-9864650D01*
X9667801Y-9864650D02*
X9705896Y-9864650D01*
X9705896Y-9864650D02*
X9724944Y-9874174D01*
X9724944Y-9874174D02*
X9734468Y-9893222D01*
X9734468Y-9893222D02*
X9734468Y-9912270D01*
X9734468Y-9912270D02*
X9639230Y-9931317D01*
X9810658Y-9988460D02*
X9829706Y-9997984D01*
X9829706Y-9997984D02*
X9867801Y-9997984D01*
X9867801Y-9997984D02*
X9886849Y-9988460D01*
X9886849Y-9988460D02*
X9896373Y-9969412D01*
X9896373Y-9969412D02*
X9896373Y-9959889D01*
X9896373Y-9959889D02*
X9886849Y-9940841D01*
X9886849Y-9940841D02*
X9867801Y-9931317D01*
X9867801Y-9931317D02*
X9839230Y-9931317D01*
X9839230Y-9931317D02*
X9820182Y-9921793D01*
X9820182Y-9921793D02*
X9810658Y-9902746D01*
X9810658Y-9902746D02*
X9810658Y-9893222D01*
X9810658Y-9893222D02*
X9820182Y-9874174D01*
X9820182Y-9874174D02*
X9839230Y-9864650D01*
X9839230Y-9864650D02*
X9867801Y-9864650D01*
X9867801Y-9864650D02*
X9886849Y-9874174D01*
X9963039Y-10074174D02*
X9972563Y-10064650D01*
X9972563Y-10064650D02*
X9991611Y-10036079D01*
X9991611Y-10036079D02*
X10001134Y-10017031D01*
X10001134Y-10017031D02*
X10010658Y-9988460D01*
X10010658Y-9988460D02*
X10020182Y-9940841D01*
X10020182Y-9940841D02*
X10020182Y-9902746D01*
X10020182Y-9902746D02*
X10010658Y-9855127D01*
X10010658Y-9855127D02*
X10001134Y-9826555D01*
X10001134Y-9826555D02*
X9991611Y-9807508D01*
X9991611Y-9807508D02*
X9972563Y-9778936D01*
X9972563Y-9778936D02*
X9963039Y-9769412D01*
D12*
X4967500Y-10140500D02*
X4967500Y-10200500D01*
X4937500Y-10170500D02*
X4997500Y-10170500D01*
D11*
X5296372Y-10061984D02*
X5315420Y-10061984D01*
X5315420Y-10061984D02*
X5334467Y-10071508D01*
X5334467Y-10071508D02*
X5343991Y-10081031D01*
X5343991Y-10081031D02*
X5353515Y-10100079D01*
X5353515Y-10100079D02*
X5363039Y-10138174D01*
X5363039Y-10138174D02*
X5363039Y-10185793D01*
X5363039Y-10185793D02*
X5353515Y-10223889D01*
X5353515Y-10223889D02*
X5343991Y-10242936D01*
X5343991Y-10242936D02*
X5334467Y-10252460D01*
X5334467Y-10252460D02*
X5315420Y-10261984D01*
X5315420Y-10261984D02*
X5296372Y-10261984D01*
X5296372Y-10261984D02*
X5277324Y-10252460D01*
X5277324Y-10252460D02*
X5267801Y-10242936D01*
X5267801Y-10242936D02*
X5258277Y-10223889D01*
X5258277Y-10223889D02*
X5248753Y-10185793D01*
X5248753Y-10185793D02*
X5248753Y-10138174D01*
X5248753Y-10138174D02*
X5258277Y-10100079D01*
X5258277Y-10100079D02*
X5267801Y-10081031D01*
X5267801Y-10081031D02*
X5277324Y-10071508D01*
X5277324Y-10071508D02*
X5296372Y-10061984D01*
X5448753Y-10242936D02*
X5458277Y-10252460D01*
X5458277Y-10252460D02*
X5448753Y-10261984D01*
X5448753Y-10261984D02*
X5439229Y-10252460D01*
X5439229Y-10252460D02*
X5448753Y-10242936D01*
X5448753Y-10242936D02*
X5448753Y-10261984D01*
X5629705Y-10061984D02*
X5591610Y-10061984D01*
X5591610Y-10061984D02*
X5572563Y-10071508D01*
X5572563Y-10071508D02*
X5563039Y-10081031D01*
X5563039Y-10081031D02*
X5543991Y-10109603D01*
X5543991Y-10109603D02*
X5534467Y-10147698D01*
X5534467Y-10147698D02*
X5534467Y-10223889D01*
X5534467Y-10223889D02*
X5543991Y-10242936D01*
X5543991Y-10242936D02*
X5553515Y-10252460D01*
X5553515Y-10252460D02*
X5572563Y-10261984D01*
X5572563Y-10261984D02*
X5610658Y-10261984D01*
X5610658Y-10261984D02*
X5629705Y-10252460D01*
X5629705Y-10252460D02*
X5639229Y-10242936D01*
X5639229Y-10242936D02*
X5648753Y-10223889D01*
X5648753Y-10223889D02*
X5648753Y-10176270D01*
X5648753Y-10176270D02*
X5639229Y-10157222D01*
X5639229Y-10157222D02*
X5629705Y-10147698D01*
X5629705Y-10147698D02*
X5610658Y-10138174D01*
X5610658Y-10138174D02*
X5572563Y-10138174D01*
X5572563Y-10138174D02*
X5553515Y-10147698D01*
X5553515Y-10147698D02*
X5543991Y-10157222D01*
X5543991Y-10157222D02*
X5534467Y-10176270D01*
X5772562Y-10061984D02*
X5791610Y-10061984D01*
X5791610Y-10061984D02*
X5810658Y-10071508D01*
X5810658Y-10071508D02*
X5820182Y-10081031D01*
X5820182Y-10081031D02*
X5829705Y-10100079D01*
X5829705Y-10100079D02*
X5839229Y-10138174D01*
X5839229Y-10138174D02*
X5839229Y-10185793D01*
X5839229Y-10185793D02*
X5829705Y-10223889D01*
X5829705Y-10223889D02*
X5820182Y-10242936D01*
X5820182Y-10242936D02*
X5810658Y-10252460D01*
X5810658Y-10252460D02*
X5791610Y-10261984D01*
X5791610Y-10261984D02*
X5772562Y-10261984D01*
X5772562Y-10261984D02*
X5753515Y-10252460D01*
X5753515Y-10252460D02*
X5743991Y-10242936D01*
X5743991Y-10242936D02*
X5734467Y-10223889D01*
X5734467Y-10223889D02*
X5724943Y-10185793D01*
X5724943Y-10185793D02*
X5724943Y-10138174D01*
X5724943Y-10138174D02*
X5734467Y-10100079D01*
X5734467Y-10100079D02*
X5743991Y-10081031D01*
X5743991Y-10081031D02*
X5753515Y-10071508D01*
X5753515Y-10071508D02*
X5772562Y-10061984D01*
X5963039Y-10061984D02*
X5982086Y-10061984D01*
X5982086Y-10061984D02*
X6001134Y-10071508D01*
X6001134Y-10071508D02*
X6010658Y-10081031D01*
X6010658Y-10081031D02*
X6020182Y-10100079D01*
X6020182Y-10100079D02*
X6029705Y-10138174D01*
X6029705Y-10138174D02*
X6029705Y-10185793D01*
X6029705Y-10185793D02*
X6020182Y-10223889D01*
X6020182Y-10223889D02*
X6010658Y-10242936D01*
X6010658Y-10242936D02*
X6001134Y-10252460D01*
X6001134Y-10252460D02*
X5982086Y-10261984D01*
X5982086Y-10261984D02*
X5963039Y-10261984D01*
X5963039Y-10261984D02*
X5943991Y-10252460D01*
X5943991Y-10252460D02*
X5934467Y-10242936D01*
X5934467Y-10242936D02*
X5924943Y-10223889D01*
X5924943Y-10223889D02*
X5915420Y-10185793D01*
X5915420Y-10185793D02*
X5915420Y-10138174D01*
X5915420Y-10138174D02*
X5924943Y-10100079D01*
X5924943Y-10100079D02*
X5934467Y-10081031D01*
X5934467Y-10081031D02*
X5943991Y-10071508D01*
X5943991Y-10071508D02*
X5963039Y-10061984D01*
X6115420Y-10261984D02*
X6115420Y-10128650D01*
X6115420Y-10147698D02*
X6124943Y-10138174D01*
X6124943Y-10138174D02*
X6143991Y-10128650D01*
X6143991Y-10128650D02*
X6172563Y-10128650D01*
X6172563Y-10128650D02*
X6191610Y-10138174D01*
X6191610Y-10138174D02*
X6201134Y-10157222D01*
X6201134Y-10157222D02*
X6201134Y-10261984D01*
X6201134Y-10157222D02*
X6210658Y-10138174D01*
X6210658Y-10138174D02*
X6229705Y-10128650D01*
X6229705Y-10128650D02*
X6258277Y-10128650D01*
X6258277Y-10128650D02*
X6277324Y-10138174D01*
X6277324Y-10138174D02*
X6286848Y-10157222D01*
X6286848Y-10157222D02*
X6286848Y-10261984D01*
X6382086Y-10261984D02*
X6382086Y-10128650D01*
X6382086Y-10147698D02*
X6391610Y-10138174D01*
X6391610Y-10138174D02*
X6410658Y-10128650D01*
X6410658Y-10128650D02*
X6439229Y-10128650D01*
X6439229Y-10128650D02*
X6458277Y-10138174D01*
X6458277Y-10138174D02*
X6467801Y-10157222D01*
X6467801Y-10157222D02*
X6467801Y-10261984D01*
X6467801Y-10157222D02*
X6477324Y-10138174D01*
X6477324Y-10138174D02*
X6496372Y-10128650D01*
X6496372Y-10128650D02*
X6524943Y-10128650D01*
X6524943Y-10128650D02*
X6543991Y-10138174D01*
X6543991Y-10138174D02*
X6553515Y-10157222D01*
X6553515Y-10157222D02*
X6553515Y-10261984D01*
X6943991Y-10052460D02*
X6772563Y-10309603D01*
X7201134Y-10061984D02*
X7220182Y-10061984D01*
X7220182Y-10061984D02*
X7239229Y-10071508D01*
X7239229Y-10071508D02*
X7248753Y-10081031D01*
X7248753Y-10081031D02*
X7258277Y-10100079D01*
X7258277Y-10100079D02*
X7267801Y-10138174D01*
X7267801Y-10138174D02*
X7267801Y-10185793D01*
X7267801Y-10185793D02*
X7258277Y-10223889D01*
X7258277Y-10223889D02*
X7248753Y-10242936D01*
X7248753Y-10242936D02*
X7239229Y-10252460D01*
X7239229Y-10252460D02*
X7220182Y-10261984D01*
X7220182Y-10261984D02*
X7201134Y-10261984D01*
X7201134Y-10261984D02*
X7182086Y-10252460D01*
X7182086Y-10252460D02*
X7172563Y-10242936D01*
X7172563Y-10242936D02*
X7163039Y-10223889D01*
X7163039Y-10223889D02*
X7153515Y-10185793D01*
X7153515Y-10185793D02*
X7153515Y-10138174D01*
X7153515Y-10138174D02*
X7163039Y-10100079D01*
X7163039Y-10100079D02*
X7172563Y-10081031D01*
X7172563Y-10081031D02*
X7182086Y-10071508D01*
X7182086Y-10071508D02*
X7201134Y-10061984D01*
X7353515Y-10242936D02*
X7363039Y-10252460D01*
X7363039Y-10252460D02*
X7353515Y-10261984D01*
X7353515Y-10261984D02*
X7343991Y-10252460D01*
X7343991Y-10252460D02*
X7353515Y-10242936D01*
X7353515Y-10242936D02*
X7353515Y-10261984D01*
X7486848Y-10061984D02*
X7505896Y-10061984D01*
X7505896Y-10061984D02*
X7524944Y-10071508D01*
X7524944Y-10071508D02*
X7534467Y-10081031D01*
X7534467Y-10081031D02*
X7543991Y-10100079D01*
X7543991Y-10100079D02*
X7553515Y-10138174D01*
X7553515Y-10138174D02*
X7553515Y-10185793D01*
X7553515Y-10185793D02*
X7543991Y-10223889D01*
X7543991Y-10223889D02*
X7534467Y-10242936D01*
X7534467Y-10242936D02*
X7524944Y-10252460D01*
X7524944Y-10252460D02*
X7505896Y-10261984D01*
X7505896Y-10261984D02*
X7486848Y-10261984D01*
X7486848Y-10261984D02*
X7467801Y-10252460D01*
X7467801Y-10252460D02*
X7458277Y-10242936D01*
X7458277Y-10242936D02*
X7448753Y-10223889D01*
X7448753Y-10223889D02*
X7439229Y-10185793D01*
X7439229Y-10185793D02*
X7439229Y-10138174D01*
X7439229Y-10138174D02*
X7448753Y-10100079D01*
X7448753Y-10100079D02*
X7458277Y-10081031D01*
X7458277Y-10081031D02*
X7467801Y-10071508D01*
X7467801Y-10071508D02*
X7486848Y-10061984D01*
X7629706Y-10081031D02*
X7639229Y-10071508D01*
X7639229Y-10071508D02*
X7658277Y-10061984D01*
X7658277Y-10061984D02*
X7705896Y-10061984D01*
X7705896Y-10061984D02*
X7724944Y-10071508D01*
X7724944Y-10071508D02*
X7734467Y-10081031D01*
X7734467Y-10081031D02*
X7743991Y-10100079D01*
X7743991Y-10100079D02*
X7743991Y-10119127D01*
X7743991Y-10119127D02*
X7734467Y-10147698D01*
X7734467Y-10147698D02*
X7620182Y-10261984D01*
X7620182Y-10261984D02*
X7743991Y-10261984D01*
X7810658Y-10061984D02*
X7934467Y-10061984D01*
X7934467Y-10061984D02*
X7867801Y-10138174D01*
X7867801Y-10138174D02*
X7896372Y-10138174D01*
X7896372Y-10138174D02*
X7915420Y-10147698D01*
X7915420Y-10147698D02*
X7924944Y-10157222D01*
X7924944Y-10157222D02*
X7934467Y-10176270D01*
X7934467Y-10176270D02*
X7934467Y-10223889D01*
X7934467Y-10223889D02*
X7924944Y-10242936D01*
X7924944Y-10242936D02*
X7915420Y-10252460D01*
X7915420Y-10252460D02*
X7896372Y-10261984D01*
X7896372Y-10261984D02*
X7839229Y-10261984D01*
X7839229Y-10261984D02*
X7820182Y-10252460D01*
X7820182Y-10252460D02*
X7810658Y-10242936D01*
X8105896Y-10061984D02*
X8067801Y-10061984D01*
X8067801Y-10061984D02*
X8048753Y-10071508D01*
X8048753Y-10071508D02*
X8039229Y-10081031D01*
X8039229Y-10081031D02*
X8020182Y-10109603D01*
X8020182Y-10109603D02*
X8010658Y-10147698D01*
X8010658Y-10147698D02*
X8010658Y-10223889D01*
X8010658Y-10223889D02*
X8020182Y-10242936D01*
X8020182Y-10242936D02*
X8029706Y-10252460D01*
X8029706Y-10252460D02*
X8048753Y-10261984D01*
X8048753Y-10261984D02*
X8086848Y-10261984D01*
X8086848Y-10261984D02*
X8105896Y-10252460D01*
X8105896Y-10252460D02*
X8115420Y-10242936D01*
X8115420Y-10242936D02*
X8124944Y-10223889D01*
X8124944Y-10223889D02*
X8124944Y-10176270D01*
X8124944Y-10176270D02*
X8115420Y-10157222D01*
X8115420Y-10157222D02*
X8105896Y-10147698D01*
X8105896Y-10147698D02*
X8086848Y-10138174D01*
X8086848Y-10138174D02*
X8048753Y-10138174D01*
X8048753Y-10138174D02*
X8029706Y-10147698D01*
X8029706Y-10147698D02*
X8020182Y-10157222D01*
X8020182Y-10157222D02*
X8010658Y-10176270D01*
X8201134Y-10061984D02*
X8201134Y-10100079D01*
X8277325Y-10061984D02*
X8277325Y-10100079D01*
X8572563Y-10338174D02*
X8563039Y-10328650D01*
X8563039Y-10328650D02*
X8543991Y-10300079D01*
X8543991Y-10300079D02*
X8534468Y-10281031D01*
X8534468Y-10281031D02*
X8524944Y-10252460D01*
X8524944Y-10252460D02*
X8515420Y-10204841D01*
X8515420Y-10204841D02*
X8515420Y-10166746D01*
X8515420Y-10166746D02*
X8524944Y-10119127D01*
X8524944Y-10119127D02*
X8534468Y-10090555D01*
X8534468Y-10090555D02*
X8543991Y-10071508D01*
X8543991Y-10071508D02*
X8563039Y-10042936D01*
X8563039Y-10042936D02*
X8572563Y-10033412D01*
X8686849Y-10061984D02*
X8705896Y-10061984D01*
X8705896Y-10061984D02*
X8724944Y-10071508D01*
X8724944Y-10071508D02*
X8734468Y-10081031D01*
X8734468Y-10081031D02*
X8743991Y-10100079D01*
X8743991Y-10100079D02*
X8753515Y-10138174D01*
X8753515Y-10138174D02*
X8753515Y-10185793D01*
X8753515Y-10185793D02*
X8743991Y-10223889D01*
X8743991Y-10223889D02*
X8734468Y-10242936D01*
X8734468Y-10242936D02*
X8724944Y-10252460D01*
X8724944Y-10252460D02*
X8705896Y-10261984D01*
X8705896Y-10261984D02*
X8686849Y-10261984D01*
X8686849Y-10261984D02*
X8667801Y-10252460D01*
X8667801Y-10252460D02*
X8658277Y-10242936D01*
X8658277Y-10242936D02*
X8648753Y-10223889D01*
X8648753Y-10223889D02*
X8639230Y-10185793D01*
X8639230Y-10185793D02*
X8639230Y-10138174D01*
X8639230Y-10138174D02*
X8648753Y-10100079D01*
X8648753Y-10100079D02*
X8658277Y-10081031D01*
X8658277Y-10081031D02*
X8667801Y-10071508D01*
X8667801Y-10071508D02*
X8686849Y-10061984D01*
X8991611Y-10261984D02*
X8991611Y-10061984D01*
X9077325Y-10261984D02*
X9077325Y-10157222D01*
X9077325Y-10157222D02*
X9067801Y-10138174D01*
X9067801Y-10138174D02*
X9048753Y-10128650D01*
X9048753Y-10128650D02*
X9020182Y-10128650D01*
X9020182Y-10128650D02*
X9001134Y-10138174D01*
X9001134Y-10138174D02*
X8991611Y-10147698D01*
X9201134Y-10261984D02*
X9182087Y-10252460D01*
X9182087Y-10252460D02*
X9172563Y-10242936D01*
X9172563Y-10242936D02*
X9163039Y-10223889D01*
X9163039Y-10223889D02*
X9163039Y-10166746D01*
X9163039Y-10166746D02*
X9172563Y-10147698D01*
X9172563Y-10147698D02*
X9182087Y-10138174D01*
X9182087Y-10138174D02*
X9201134Y-10128650D01*
X9201134Y-10128650D02*
X9229706Y-10128650D01*
X9229706Y-10128650D02*
X9248753Y-10138174D01*
X9248753Y-10138174D02*
X9258277Y-10147698D01*
X9258277Y-10147698D02*
X9267801Y-10166746D01*
X9267801Y-10166746D02*
X9267801Y-10223889D01*
X9267801Y-10223889D02*
X9258277Y-10242936D01*
X9258277Y-10242936D02*
X9248753Y-10252460D01*
X9248753Y-10252460D02*
X9229706Y-10261984D01*
X9229706Y-10261984D02*
X9201134Y-10261984D01*
X9382087Y-10261984D02*
X9363039Y-10252460D01*
X9363039Y-10252460D02*
X9353515Y-10233412D01*
X9353515Y-10233412D02*
X9353515Y-10061984D01*
X9534468Y-10252460D02*
X9515420Y-10261984D01*
X9515420Y-10261984D02*
X9477325Y-10261984D01*
X9477325Y-10261984D02*
X9458277Y-10252460D01*
X9458277Y-10252460D02*
X9448753Y-10233412D01*
X9448753Y-10233412D02*
X9448753Y-10157222D01*
X9448753Y-10157222D02*
X9458277Y-10138174D01*
X9458277Y-10138174D02*
X9477325Y-10128650D01*
X9477325Y-10128650D02*
X9515420Y-10128650D01*
X9515420Y-10128650D02*
X9534468Y-10138174D01*
X9534468Y-10138174D02*
X9543992Y-10157222D01*
X9543992Y-10157222D02*
X9543992Y-10176270D01*
X9543992Y-10176270D02*
X9448753Y-10195317D01*
X9620182Y-10252460D02*
X9639230Y-10261984D01*
X9639230Y-10261984D02*
X9677325Y-10261984D01*
X9677325Y-10261984D02*
X9696373Y-10252460D01*
X9696373Y-10252460D02*
X9705896Y-10233412D01*
X9705896Y-10233412D02*
X9705896Y-10223889D01*
X9705896Y-10223889D02*
X9696373Y-10204841D01*
X9696373Y-10204841D02*
X9677325Y-10195317D01*
X9677325Y-10195317D02*
X9648753Y-10195317D01*
X9648753Y-10195317D02*
X9629706Y-10185793D01*
X9629706Y-10185793D02*
X9620182Y-10166746D01*
X9620182Y-10166746D02*
X9620182Y-10157222D01*
X9620182Y-10157222D02*
X9629706Y-10138174D01*
X9629706Y-10138174D02*
X9648753Y-10128650D01*
X9648753Y-10128650D02*
X9677325Y-10128650D01*
X9677325Y-10128650D02*
X9696373Y-10138174D01*
X9943992Y-10185793D02*
X10096373Y-10185793D01*
X10020182Y-10261984D02*
X10020182Y-10109603D01*
X10429706Y-10128650D02*
X10429706Y-10261984D01*
X10382087Y-10052460D02*
X10334468Y-10195317D01*
X10334468Y-10195317D02*
X10458277Y-10195317D01*
X10677325Y-10252460D02*
X10696373Y-10261984D01*
X10696373Y-10261984D02*
X10734468Y-10261984D01*
X10734468Y-10261984D02*
X10753516Y-10252460D01*
X10753516Y-10252460D02*
X10763039Y-10233412D01*
X10763039Y-10233412D02*
X10763039Y-10223889D01*
X10763039Y-10223889D02*
X10753516Y-10204841D01*
X10753516Y-10204841D02*
X10734468Y-10195317D01*
X10734468Y-10195317D02*
X10705896Y-10195317D01*
X10705896Y-10195317D02*
X10686849Y-10185793D01*
X10686849Y-10185793D02*
X10677325Y-10166746D01*
X10677325Y-10166746D02*
X10677325Y-10157222D01*
X10677325Y-10157222D02*
X10686849Y-10138174D01*
X10686849Y-10138174D02*
X10705896Y-10128650D01*
X10705896Y-10128650D02*
X10734468Y-10128650D01*
X10734468Y-10128650D02*
X10753516Y-10138174D01*
X10877325Y-10261984D02*
X10858277Y-10252460D01*
X10858277Y-10252460D02*
X10848754Y-10233412D01*
X10848754Y-10233412D02*
X10848754Y-10061984D01*
X10982087Y-10261984D02*
X10963039Y-10252460D01*
X10963039Y-10252460D02*
X10953516Y-10242936D01*
X10953516Y-10242936D02*
X10943992Y-10223889D01*
X10943992Y-10223889D02*
X10943992Y-10166746D01*
X10943992Y-10166746D02*
X10953516Y-10147698D01*
X10953516Y-10147698D02*
X10963039Y-10138174D01*
X10963039Y-10138174D02*
X10982087Y-10128650D01*
X10982087Y-10128650D02*
X11010658Y-10128650D01*
X11010658Y-10128650D02*
X11029706Y-10138174D01*
X11029706Y-10138174D02*
X11039230Y-10147698D01*
X11039230Y-10147698D02*
X11048754Y-10166746D01*
X11048754Y-10166746D02*
X11048754Y-10223889D01*
X11048754Y-10223889D02*
X11039230Y-10242936D01*
X11039230Y-10242936D02*
X11029706Y-10252460D01*
X11029706Y-10252460D02*
X11010658Y-10261984D01*
X11010658Y-10261984D02*
X10982087Y-10261984D01*
X11105897Y-10128650D02*
X11182087Y-10128650D01*
X11134468Y-10061984D02*
X11134468Y-10233412D01*
X11134468Y-10233412D02*
X11143992Y-10252460D01*
X11143992Y-10252460D02*
X11163039Y-10261984D01*
X11163039Y-10261984D02*
X11182087Y-10261984D01*
X11239230Y-10252460D02*
X11258277Y-10261984D01*
X11258277Y-10261984D02*
X11296373Y-10261984D01*
X11296373Y-10261984D02*
X11315420Y-10252460D01*
X11315420Y-10252460D02*
X11324944Y-10233412D01*
X11324944Y-10233412D02*
X11324944Y-10223889D01*
X11324944Y-10223889D02*
X11315420Y-10204841D01*
X11315420Y-10204841D02*
X11296373Y-10195317D01*
X11296373Y-10195317D02*
X11267801Y-10195317D01*
X11267801Y-10195317D02*
X11248754Y-10185793D01*
X11248754Y-10185793D02*
X11239230Y-10166746D01*
X11239230Y-10166746D02*
X11239230Y-10157222D01*
X11239230Y-10157222D02*
X11248754Y-10138174D01*
X11248754Y-10138174D02*
X11267801Y-10128650D01*
X11267801Y-10128650D02*
X11296373Y-10128650D01*
X11296373Y-10128650D02*
X11315420Y-10138174D01*
X11391611Y-10338174D02*
X11401135Y-10328650D01*
X11401135Y-10328650D02*
X11420182Y-10300079D01*
X11420182Y-10300079D02*
X11429706Y-10281031D01*
X11429706Y-10281031D02*
X11439230Y-10252460D01*
X11439230Y-10252460D02*
X11448754Y-10204841D01*
X11448754Y-10204841D02*
X11448754Y-10166746D01*
X11448754Y-10166746D02*
X11439230Y-10119127D01*
X11439230Y-10119127D02*
X11429706Y-10090555D01*
X11429706Y-10090555D02*
X11420182Y-10071508D01*
X11420182Y-10071508D02*
X11401135Y-10042936D01*
X11401135Y-10042936D02*
X11391611Y-10033412D01*
D12*
X4985785Y-10462785D02*
X4985785Y-10406216D01*
X4929216Y-10406216D01*
X4929216Y-10462785D01*
X4985785Y-10462785D01*
D11*
X5296372Y-10325984D02*
X5315420Y-10325984D01*
X5315420Y-10325984D02*
X5334467Y-10335508D01*
X5334467Y-10335508D02*
X5343991Y-10345031D01*
X5343991Y-10345031D02*
X5353515Y-10364079D01*
X5353515Y-10364079D02*
X5363039Y-10402174D01*
X5363039Y-10402174D02*
X5363039Y-10449793D01*
X5363039Y-10449793D02*
X5353515Y-10487889D01*
X5353515Y-10487889D02*
X5343991Y-10506936D01*
X5343991Y-10506936D02*
X5334467Y-10516460D01*
X5334467Y-10516460D02*
X5315420Y-10525984D01*
X5315420Y-10525984D02*
X5296372Y-10525984D01*
X5296372Y-10525984D02*
X5277324Y-10516460D01*
X5277324Y-10516460D02*
X5267801Y-10506936D01*
X5267801Y-10506936D02*
X5258277Y-10487889D01*
X5258277Y-10487889D02*
X5248753Y-10449793D01*
X5248753Y-10449793D02*
X5248753Y-10402174D01*
X5248753Y-10402174D02*
X5258277Y-10364079D01*
X5258277Y-10364079D02*
X5267801Y-10345031D01*
X5267801Y-10345031D02*
X5277324Y-10335508D01*
X5277324Y-10335508D02*
X5296372Y-10325984D01*
X5448753Y-10506936D02*
X5458277Y-10516460D01*
X5458277Y-10516460D02*
X5448753Y-10525984D01*
X5448753Y-10525984D02*
X5439229Y-10516460D01*
X5439229Y-10516460D02*
X5448753Y-10506936D01*
X5448753Y-10506936D02*
X5448753Y-10525984D01*
X5572563Y-10411698D02*
X5553515Y-10402174D01*
X5553515Y-10402174D02*
X5543991Y-10392650D01*
X5543991Y-10392650D02*
X5534467Y-10373603D01*
X5534467Y-10373603D02*
X5534467Y-10364079D01*
X5534467Y-10364079D02*
X5543991Y-10345031D01*
X5543991Y-10345031D02*
X5553515Y-10335508D01*
X5553515Y-10335508D02*
X5572563Y-10325984D01*
X5572563Y-10325984D02*
X5610658Y-10325984D01*
X5610658Y-10325984D02*
X5629705Y-10335508D01*
X5629705Y-10335508D02*
X5639229Y-10345031D01*
X5639229Y-10345031D02*
X5648753Y-10364079D01*
X5648753Y-10364079D02*
X5648753Y-10373603D01*
X5648753Y-10373603D02*
X5639229Y-10392650D01*
X5639229Y-10392650D02*
X5629705Y-10402174D01*
X5629705Y-10402174D02*
X5610658Y-10411698D01*
X5610658Y-10411698D02*
X5572563Y-10411698D01*
X5572563Y-10411698D02*
X5553515Y-10421222D01*
X5553515Y-10421222D02*
X5543991Y-10430746D01*
X5543991Y-10430746D02*
X5534467Y-10449793D01*
X5534467Y-10449793D02*
X5534467Y-10487889D01*
X5534467Y-10487889D02*
X5543991Y-10506936D01*
X5543991Y-10506936D02*
X5553515Y-10516460D01*
X5553515Y-10516460D02*
X5572563Y-10525984D01*
X5572563Y-10525984D02*
X5610658Y-10525984D01*
X5610658Y-10525984D02*
X5629705Y-10516460D01*
X5629705Y-10516460D02*
X5639229Y-10506936D01*
X5639229Y-10506936D02*
X5648753Y-10487889D01*
X5648753Y-10487889D02*
X5648753Y-10449793D01*
X5648753Y-10449793D02*
X5639229Y-10430746D01*
X5639229Y-10430746D02*
X5629705Y-10421222D01*
X5629705Y-10421222D02*
X5610658Y-10411698D01*
X5772562Y-10325984D02*
X5791610Y-10325984D01*
X5791610Y-10325984D02*
X5810658Y-10335508D01*
X5810658Y-10335508D02*
X5820182Y-10345031D01*
X5820182Y-10345031D02*
X5829705Y-10364079D01*
X5829705Y-10364079D02*
X5839229Y-10402174D01*
X5839229Y-10402174D02*
X5839229Y-10449793D01*
X5839229Y-10449793D02*
X5829705Y-10487889D01*
X5829705Y-10487889D02*
X5820182Y-10506936D01*
X5820182Y-10506936D02*
X5810658Y-10516460D01*
X5810658Y-10516460D02*
X5791610Y-10525984D01*
X5791610Y-10525984D02*
X5772562Y-10525984D01*
X5772562Y-10525984D02*
X5753515Y-10516460D01*
X5753515Y-10516460D02*
X5743991Y-10506936D01*
X5743991Y-10506936D02*
X5734467Y-10487889D01*
X5734467Y-10487889D02*
X5724943Y-10449793D01*
X5724943Y-10449793D02*
X5724943Y-10402174D01*
X5724943Y-10402174D02*
X5734467Y-10364079D01*
X5734467Y-10364079D02*
X5743991Y-10345031D01*
X5743991Y-10345031D02*
X5753515Y-10335508D01*
X5753515Y-10335508D02*
X5772562Y-10325984D01*
X5963039Y-10325984D02*
X5982086Y-10325984D01*
X5982086Y-10325984D02*
X6001134Y-10335508D01*
X6001134Y-10335508D02*
X6010658Y-10345031D01*
X6010658Y-10345031D02*
X6020182Y-10364079D01*
X6020182Y-10364079D02*
X6029705Y-10402174D01*
X6029705Y-10402174D02*
X6029705Y-10449793D01*
X6029705Y-10449793D02*
X6020182Y-10487889D01*
X6020182Y-10487889D02*
X6010658Y-10506936D01*
X6010658Y-10506936D02*
X6001134Y-10516460D01*
X6001134Y-10516460D02*
X5982086Y-10525984D01*
X5982086Y-10525984D02*
X5963039Y-10525984D01*
X5963039Y-10525984D02*
X5943991Y-10516460D01*
X5943991Y-10516460D02*
X5934467Y-10506936D01*
X5934467Y-10506936D02*
X5924943Y-10487889D01*
X5924943Y-10487889D02*
X5915420Y-10449793D01*
X5915420Y-10449793D02*
X5915420Y-10402174D01*
X5915420Y-10402174D02*
X5924943Y-10364079D01*
X5924943Y-10364079D02*
X5934467Y-10345031D01*
X5934467Y-10345031D02*
X5943991Y-10335508D01*
X5943991Y-10335508D02*
X5963039Y-10325984D01*
X6115420Y-10525984D02*
X6115420Y-10392650D01*
X6115420Y-10411698D02*
X6124943Y-10402174D01*
X6124943Y-10402174D02*
X6143991Y-10392650D01*
X6143991Y-10392650D02*
X6172563Y-10392650D01*
X6172563Y-10392650D02*
X6191610Y-10402174D01*
X6191610Y-10402174D02*
X6201134Y-10421222D01*
X6201134Y-10421222D02*
X6201134Y-10525984D01*
X6201134Y-10421222D02*
X6210658Y-10402174D01*
X6210658Y-10402174D02*
X6229705Y-10392650D01*
X6229705Y-10392650D02*
X6258277Y-10392650D01*
X6258277Y-10392650D02*
X6277324Y-10402174D01*
X6277324Y-10402174D02*
X6286848Y-10421222D01*
X6286848Y-10421222D02*
X6286848Y-10525984D01*
X6382086Y-10525984D02*
X6382086Y-10392650D01*
X6382086Y-10411698D02*
X6391610Y-10402174D01*
X6391610Y-10402174D02*
X6410658Y-10392650D01*
X6410658Y-10392650D02*
X6439229Y-10392650D01*
X6439229Y-10392650D02*
X6458277Y-10402174D01*
X6458277Y-10402174D02*
X6467801Y-10421222D01*
X6467801Y-10421222D02*
X6467801Y-10525984D01*
X6467801Y-10421222D02*
X6477324Y-10402174D01*
X6477324Y-10402174D02*
X6496372Y-10392650D01*
X6496372Y-10392650D02*
X6524943Y-10392650D01*
X6524943Y-10392650D02*
X6543991Y-10402174D01*
X6543991Y-10402174D02*
X6553515Y-10421222D01*
X6553515Y-10421222D02*
X6553515Y-10525984D01*
X6943991Y-10316460D02*
X6772563Y-10573603D01*
X7201134Y-10325984D02*
X7220182Y-10325984D01*
X7220182Y-10325984D02*
X7239229Y-10335508D01*
X7239229Y-10335508D02*
X7248753Y-10345031D01*
X7248753Y-10345031D02*
X7258277Y-10364079D01*
X7258277Y-10364079D02*
X7267801Y-10402174D01*
X7267801Y-10402174D02*
X7267801Y-10449793D01*
X7267801Y-10449793D02*
X7258277Y-10487889D01*
X7258277Y-10487889D02*
X7248753Y-10506936D01*
X7248753Y-10506936D02*
X7239229Y-10516460D01*
X7239229Y-10516460D02*
X7220182Y-10525984D01*
X7220182Y-10525984D02*
X7201134Y-10525984D01*
X7201134Y-10525984D02*
X7182086Y-10516460D01*
X7182086Y-10516460D02*
X7172563Y-10506936D01*
X7172563Y-10506936D02*
X7163039Y-10487889D01*
X7163039Y-10487889D02*
X7153515Y-10449793D01*
X7153515Y-10449793D02*
X7153515Y-10402174D01*
X7153515Y-10402174D02*
X7163039Y-10364079D01*
X7163039Y-10364079D02*
X7172563Y-10345031D01*
X7172563Y-10345031D02*
X7182086Y-10335508D01*
X7182086Y-10335508D02*
X7201134Y-10325984D01*
X7353515Y-10506936D02*
X7363039Y-10516460D01*
X7363039Y-10516460D02*
X7353515Y-10525984D01*
X7353515Y-10525984D02*
X7343991Y-10516460D01*
X7343991Y-10516460D02*
X7353515Y-10506936D01*
X7353515Y-10506936D02*
X7353515Y-10525984D01*
X7486848Y-10325984D02*
X7505896Y-10325984D01*
X7505896Y-10325984D02*
X7524944Y-10335508D01*
X7524944Y-10335508D02*
X7534467Y-10345031D01*
X7534467Y-10345031D02*
X7543991Y-10364079D01*
X7543991Y-10364079D02*
X7553515Y-10402174D01*
X7553515Y-10402174D02*
X7553515Y-10449793D01*
X7553515Y-10449793D02*
X7543991Y-10487889D01*
X7543991Y-10487889D02*
X7534467Y-10506936D01*
X7534467Y-10506936D02*
X7524944Y-10516460D01*
X7524944Y-10516460D02*
X7505896Y-10525984D01*
X7505896Y-10525984D02*
X7486848Y-10525984D01*
X7486848Y-10525984D02*
X7467801Y-10516460D01*
X7467801Y-10516460D02*
X7458277Y-10506936D01*
X7458277Y-10506936D02*
X7448753Y-10487889D01*
X7448753Y-10487889D02*
X7439229Y-10449793D01*
X7439229Y-10449793D02*
X7439229Y-10402174D01*
X7439229Y-10402174D02*
X7448753Y-10364079D01*
X7448753Y-10364079D02*
X7458277Y-10345031D01*
X7458277Y-10345031D02*
X7467801Y-10335508D01*
X7467801Y-10335508D02*
X7486848Y-10325984D01*
X7620182Y-10325984D02*
X7743991Y-10325984D01*
X7743991Y-10325984D02*
X7677325Y-10402174D01*
X7677325Y-10402174D02*
X7705896Y-10402174D01*
X7705896Y-10402174D02*
X7724944Y-10411698D01*
X7724944Y-10411698D02*
X7734467Y-10421222D01*
X7734467Y-10421222D02*
X7743991Y-10440270D01*
X7743991Y-10440270D02*
X7743991Y-10487889D01*
X7743991Y-10487889D02*
X7734467Y-10506936D01*
X7734467Y-10506936D02*
X7724944Y-10516460D01*
X7724944Y-10516460D02*
X7705896Y-10525984D01*
X7705896Y-10525984D02*
X7648753Y-10525984D01*
X7648753Y-10525984D02*
X7629706Y-10516460D01*
X7629706Y-10516460D02*
X7620182Y-10506936D01*
X7934467Y-10525984D02*
X7820182Y-10525984D01*
X7877325Y-10525984D02*
X7877325Y-10325984D01*
X7877325Y-10325984D02*
X7858277Y-10354555D01*
X7858277Y-10354555D02*
X7839229Y-10373603D01*
X7839229Y-10373603D02*
X7820182Y-10383127D01*
X8115420Y-10325984D02*
X8020182Y-10325984D01*
X8020182Y-10325984D02*
X8010658Y-10421222D01*
X8010658Y-10421222D02*
X8020182Y-10411698D01*
X8020182Y-10411698D02*
X8039229Y-10402174D01*
X8039229Y-10402174D02*
X8086848Y-10402174D01*
X8086848Y-10402174D02*
X8105896Y-10411698D01*
X8105896Y-10411698D02*
X8115420Y-10421222D01*
X8115420Y-10421222D02*
X8124944Y-10440270D01*
X8124944Y-10440270D02*
X8124944Y-10487889D01*
X8124944Y-10487889D02*
X8115420Y-10506936D01*
X8115420Y-10506936D02*
X8105896Y-10516460D01*
X8105896Y-10516460D02*
X8086848Y-10525984D01*
X8086848Y-10525984D02*
X8039229Y-10525984D01*
X8039229Y-10525984D02*
X8020182Y-10516460D01*
X8020182Y-10516460D02*
X8010658Y-10506936D01*
X8201134Y-10325984D02*
X8201134Y-10364079D01*
X8277325Y-10325984D02*
X8277325Y-10364079D01*
X8572563Y-10602174D02*
X8563039Y-10592650D01*
X8563039Y-10592650D02*
X8543991Y-10564079D01*
X8543991Y-10564079D02*
X8534468Y-10545031D01*
X8534468Y-10545031D02*
X8524944Y-10516460D01*
X8524944Y-10516460D02*
X8515420Y-10468841D01*
X8515420Y-10468841D02*
X8515420Y-10430746D01*
X8515420Y-10430746D02*
X8524944Y-10383127D01*
X8524944Y-10383127D02*
X8534468Y-10354555D01*
X8534468Y-10354555D02*
X8543991Y-10335508D01*
X8543991Y-10335508D02*
X8563039Y-10306936D01*
X8563039Y-10306936D02*
X8572563Y-10297412D01*
X8629706Y-10325984D02*
X8763039Y-10325984D01*
X8763039Y-10325984D02*
X8677325Y-10525984D01*
X8924944Y-10325984D02*
X8886849Y-10325984D01*
X8886849Y-10325984D02*
X8867801Y-10335508D01*
X8867801Y-10335508D02*
X8858277Y-10345031D01*
X8858277Y-10345031D02*
X8839230Y-10373603D01*
X8839230Y-10373603D02*
X8829706Y-10411698D01*
X8829706Y-10411698D02*
X8829706Y-10487889D01*
X8829706Y-10487889D02*
X8839230Y-10506936D01*
X8839230Y-10506936D02*
X8848753Y-10516460D01*
X8848753Y-10516460D02*
X8867801Y-10525984D01*
X8867801Y-10525984D02*
X8905896Y-10525984D01*
X8905896Y-10525984D02*
X8924944Y-10516460D01*
X8924944Y-10516460D02*
X8934468Y-10506936D01*
X8934468Y-10506936D02*
X8943991Y-10487889D01*
X8943991Y-10487889D02*
X8943991Y-10440270D01*
X8943991Y-10440270D02*
X8934468Y-10421222D01*
X8934468Y-10421222D02*
X8924944Y-10411698D01*
X8924944Y-10411698D02*
X8905896Y-10402174D01*
X8905896Y-10402174D02*
X8867801Y-10402174D01*
X8867801Y-10402174D02*
X8848753Y-10411698D01*
X8848753Y-10411698D02*
X8839230Y-10421222D01*
X8839230Y-10421222D02*
X8829706Y-10440270D01*
X9182087Y-10525984D02*
X9182087Y-10325984D01*
X9267801Y-10525984D02*
X9267801Y-10421222D01*
X9267801Y-10421222D02*
X9258277Y-10402174D01*
X9258277Y-10402174D02*
X9239230Y-10392650D01*
X9239230Y-10392650D02*
X9210658Y-10392650D01*
X9210658Y-10392650D02*
X9191611Y-10402174D01*
X9191611Y-10402174D02*
X9182087Y-10411698D01*
X9391611Y-10525984D02*
X9372563Y-10516460D01*
X9372563Y-10516460D02*
X9363039Y-10506936D01*
X9363039Y-10506936D02*
X9353515Y-10487889D01*
X9353515Y-10487889D02*
X9353515Y-10430746D01*
X9353515Y-10430746D02*
X9363039Y-10411698D01*
X9363039Y-10411698D02*
X9372563Y-10402174D01*
X9372563Y-10402174D02*
X9391611Y-10392650D01*
X9391611Y-10392650D02*
X9420182Y-10392650D01*
X9420182Y-10392650D02*
X9439230Y-10402174D01*
X9439230Y-10402174D02*
X9448753Y-10411698D01*
X9448753Y-10411698D02*
X9458277Y-10430746D01*
X9458277Y-10430746D02*
X9458277Y-10487889D01*
X9458277Y-10487889D02*
X9448753Y-10506936D01*
X9448753Y-10506936D02*
X9439230Y-10516460D01*
X9439230Y-10516460D02*
X9420182Y-10525984D01*
X9420182Y-10525984D02*
X9391611Y-10525984D01*
X9572563Y-10525984D02*
X9553515Y-10516460D01*
X9553515Y-10516460D02*
X9543992Y-10497412D01*
X9543992Y-10497412D02*
X9543992Y-10325984D01*
X9724944Y-10516460D02*
X9705896Y-10525984D01*
X9705896Y-10525984D02*
X9667801Y-10525984D01*
X9667801Y-10525984D02*
X9648753Y-10516460D01*
X9648753Y-10516460D02*
X9639230Y-10497412D01*
X9639230Y-10497412D02*
X9639230Y-10421222D01*
X9639230Y-10421222D02*
X9648753Y-10402174D01*
X9648753Y-10402174D02*
X9667801Y-10392650D01*
X9667801Y-10392650D02*
X9705896Y-10392650D01*
X9705896Y-10392650D02*
X9724944Y-10402174D01*
X9724944Y-10402174D02*
X9734468Y-10421222D01*
X9734468Y-10421222D02*
X9734468Y-10440270D01*
X9734468Y-10440270D02*
X9639230Y-10459317D01*
X9810658Y-10516460D02*
X9829706Y-10525984D01*
X9829706Y-10525984D02*
X9867801Y-10525984D01*
X9867801Y-10525984D02*
X9886849Y-10516460D01*
X9886849Y-10516460D02*
X9896373Y-10497412D01*
X9896373Y-10497412D02*
X9896373Y-10487889D01*
X9896373Y-10487889D02*
X9886849Y-10468841D01*
X9886849Y-10468841D02*
X9867801Y-10459317D01*
X9867801Y-10459317D02*
X9839230Y-10459317D01*
X9839230Y-10459317D02*
X9820182Y-10449793D01*
X9820182Y-10449793D02*
X9810658Y-10430746D01*
X9810658Y-10430746D02*
X9810658Y-10421222D01*
X9810658Y-10421222D02*
X9820182Y-10402174D01*
X9820182Y-10402174D02*
X9839230Y-10392650D01*
X9839230Y-10392650D02*
X9867801Y-10392650D01*
X9867801Y-10392650D02*
X9886849Y-10402174D01*
X9963039Y-10602174D02*
X9972563Y-10592650D01*
X9972563Y-10592650D02*
X9991611Y-10564079D01*
X9991611Y-10564079D02*
X10001134Y-10545031D01*
X10001134Y-10545031D02*
X10010658Y-10516460D01*
X10010658Y-10516460D02*
X10020182Y-10468841D01*
X10020182Y-10468841D02*
X10020182Y-10430746D01*
X10020182Y-10430746D02*
X10010658Y-10383127D01*
X10010658Y-10383127D02*
X10001134Y-10354555D01*
X10001134Y-10354555D02*
X9991611Y-10335508D01*
X9991611Y-10335508D02*
X9972563Y-10306936D01*
X9972563Y-10306936D02*
X9963039Y-10297412D01*
D12*
X4947500Y-10748500D02*
X4997500Y-10698500D01*
X4947500Y-10648500D01*
X4897500Y-10698500D01*
X4947500Y-10748500D01*
D11*
X5363039Y-10789984D02*
X5248753Y-10789984D01*
X5305896Y-10789984D02*
X5305896Y-10589984D01*
X5305896Y-10589984D02*
X5286848Y-10618555D01*
X5286848Y-10618555D02*
X5267801Y-10637603D01*
X5267801Y-10637603D02*
X5248753Y-10647127D01*
X5448753Y-10770936D02*
X5458277Y-10780460D01*
X5458277Y-10780460D02*
X5448753Y-10789984D01*
X5448753Y-10789984D02*
X5439229Y-10780460D01*
X5439229Y-10780460D02*
X5448753Y-10770936D01*
X5448753Y-10770936D02*
X5448753Y-10789984D01*
X5582086Y-10589984D02*
X5601134Y-10589984D01*
X5601134Y-10589984D02*
X5620182Y-10599508D01*
X5620182Y-10599508D02*
X5629705Y-10609031D01*
X5629705Y-10609031D02*
X5639229Y-10628079D01*
X5639229Y-10628079D02*
X5648753Y-10666174D01*
X5648753Y-10666174D02*
X5648753Y-10713793D01*
X5648753Y-10713793D02*
X5639229Y-10751889D01*
X5639229Y-10751889D02*
X5629705Y-10770936D01*
X5629705Y-10770936D02*
X5620182Y-10780460D01*
X5620182Y-10780460D02*
X5601134Y-10789984D01*
X5601134Y-10789984D02*
X5582086Y-10789984D01*
X5582086Y-10789984D02*
X5563039Y-10780460D01*
X5563039Y-10780460D02*
X5553515Y-10770936D01*
X5553515Y-10770936D02*
X5543991Y-10751889D01*
X5543991Y-10751889D02*
X5534467Y-10713793D01*
X5534467Y-10713793D02*
X5534467Y-10666174D01*
X5534467Y-10666174D02*
X5543991Y-10628079D01*
X5543991Y-10628079D02*
X5553515Y-10609031D01*
X5553515Y-10609031D02*
X5563039Y-10599508D01*
X5563039Y-10599508D02*
X5582086Y-10589984D01*
X5772562Y-10589984D02*
X5791610Y-10589984D01*
X5791610Y-10589984D02*
X5810658Y-10599508D01*
X5810658Y-10599508D02*
X5820182Y-10609031D01*
X5820182Y-10609031D02*
X5829705Y-10628079D01*
X5829705Y-10628079D02*
X5839229Y-10666174D01*
X5839229Y-10666174D02*
X5839229Y-10713793D01*
X5839229Y-10713793D02*
X5829705Y-10751889D01*
X5829705Y-10751889D02*
X5820182Y-10770936D01*
X5820182Y-10770936D02*
X5810658Y-10780460D01*
X5810658Y-10780460D02*
X5791610Y-10789984D01*
X5791610Y-10789984D02*
X5772562Y-10789984D01*
X5772562Y-10789984D02*
X5753515Y-10780460D01*
X5753515Y-10780460D02*
X5743991Y-10770936D01*
X5743991Y-10770936D02*
X5734467Y-10751889D01*
X5734467Y-10751889D02*
X5724943Y-10713793D01*
X5724943Y-10713793D02*
X5724943Y-10666174D01*
X5724943Y-10666174D02*
X5734467Y-10628079D01*
X5734467Y-10628079D02*
X5743991Y-10609031D01*
X5743991Y-10609031D02*
X5753515Y-10599508D01*
X5753515Y-10599508D02*
X5772562Y-10589984D01*
X5963039Y-10589984D02*
X5982086Y-10589984D01*
X5982086Y-10589984D02*
X6001134Y-10599508D01*
X6001134Y-10599508D02*
X6010658Y-10609031D01*
X6010658Y-10609031D02*
X6020182Y-10628079D01*
X6020182Y-10628079D02*
X6029705Y-10666174D01*
X6029705Y-10666174D02*
X6029705Y-10713793D01*
X6029705Y-10713793D02*
X6020182Y-10751889D01*
X6020182Y-10751889D02*
X6010658Y-10770936D01*
X6010658Y-10770936D02*
X6001134Y-10780460D01*
X6001134Y-10780460D02*
X5982086Y-10789984D01*
X5982086Y-10789984D02*
X5963039Y-10789984D01*
X5963039Y-10789984D02*
X5943991Y-10780460D01*
X5943991Y-10780460D02*
X5934467Y-10770936D01*
X5934467Y-10770936D02*
X5924943Y-10751889D01*
X5924943Y-10751889D02*
X5915420Y-10713793D01*
X5915420Y-10713793D02*
X5915420Y-10666174D01*
X5915420Y-10666174D02*
X5924943Y-10628079D01*
X5924943Y-10628079D02*
X5934467Y-10609031D01*
X5934467Y-10609031D02*
X5943991Y-10599508D01*
X5943991Y-10599508D02*
X5963039Y-10589984D01*
X6115420Y-10789984D02*
X6115420Y-10656650D01*
X6115420Y-10675698D02*
X6124943Y-10666174D01*
X6124943Y-10666174D02*
X6143991Y-10656650D01*
X6143991Y-10656650D02*
X6172563Y-10656650D01*
X6172563Y-10656650D02*
X6191610Y-10666174D01*
X6191610Y-10666174D02*
X6201134Y-10685222D01*
X6201134Y-10685222D02*
X6201134Y-10789984D01*
X6201134Y-10685222D02*
X6210658Y-10666174D01*
X6210658Y-10666174D02*
X6229705Y-10656650D01*
X6229705Y-10656650D02*
X6258277Y-10656650D01*
X6258277Y-10656650D02*
X6277324Y-10666174D01*
X6277324Y-10666174D02*
X6286848Y-10685222D01*
X6286848Y-10685222D02*
X6286848Y-10789984D01*
X6382086Y-10789984D02*
X6382086Y-10656650D01*
X6382086Y-10675698D02*
X6391610Y-10666174D01*
X6391610Y-10666174D02*
X6410658Y-10656650D01*
X6410658Y-10656650D02*
X6439229Y-10656650D01*
X6439229Y-10656650D02*
X6458277Y-10666174D01*
X6458277Y-10666174D02*
X6467801Y-10685222D01*
X6467801Y-10685222D02*
X6467801Y-10789984D01*
X6467801Y-10685222D02*
X6477324Y-10666174D01*
X6477324Y-10666174D02*
X6496372Y-10656650D01*
X6496372Y-10656650D02*
X6524943Y-10656650D01*
X6524943Y-10656650D02*
X6543991Y-10666174D01*
X6543991Y-10666174D02*
X6553515Y-10685222D01*
X6553515Y-10685222D02*
X6553515Y-10789984D01*
X6943991Y-10580460D02*
X6772563Y-10837603D01*
X7201134Y-10589984D02*
X7220182Y-10589984D01*
X7220182Y-10589984D02*
X7239229Y-10599508D01*
X7239229Y-10599508D02*
X7248753Y-10609031D01*
X7248753Y-10609031D02*
X7258277Y-10628079D01*
X7258277Y-10628079D02*
X7267801Y-10666174D01*
X7267801Y-10666174D02*
X7267801Y-10713793D01*
X7267801Y-10713793D02*
X7258277Y-10751889D01*
X7258277Y-10751889D02*
X7248753Y-10770936D01*
X7248753Y-10770936D02*
X7239229Y-10780460D01*
X7239229Y-10780460D02*
X7220182Y-10789984D01*
X7220182Y-10789984D02*
X7201134Y-10789984D01*
X7201134Y-10789984D02*
X7182086Y-10780460D01*
X7182086Y-10780460D02*
X7172563Y-10770936D01*
X7172563Y-10770936D02*
X7163039Y-10751889D01*
X7163039Y-10751889D02*
X7153515Y-10713793D01*
X7153515Y-10713793D02*
X7153515Y-10666174D01*
X7153515Y-10666174D02*
X7163039Y-10628079D01*
X7163039Y-10628079D02*
X7172563Y-10609031D01*
X7172563Y-10609031D02*
X7182086Y-10599508D01*
X7182086Y-10599508D02*
X7201134Y-10589984D01*
X7353515Y-10770936D02*
X7363039Y-10780460D01*
X7363039Y-10780460D02*
X7353515Y-10789984D01*
X7353515Y-10789984D02*
X7343991Y-10780460D01*
X7343991Y-10780460D02*
X7353515Y-10770936D01*
X7353515Y-10770936D02*
X7353515Y-10789984D01*
X7486848Y-10589984D02*
X7505896Y-10589984D01*
X7505896Y-10589984D02*
X7524944Y-10599508D01*
X7524944Y-10599508D02*
X7534467Y-10609031D01*
X7534467Y-10609031D02*
X7543991Y-10628079D01*
X7543991Y-10628079D02*
X7553515Y-10666174D01*
X7553515Y-10666174D02*
X7553515Y-10713793D01*
X7553515Y-10713793D02*
X7543991Y-10751889D01*
X7543991Y-10751889D02*
X7534467Y-10770936D01*
X7534467Y-10770936D02*
X7524944Y-10780460D01*
X7524944Y-10780460D02*
X7505896Y-10789984D01*
X7505896Y-10789984D02*
X7486848Y-10789984D01*
X7486848Y-10789984D02*
X7467801Y-10780460D01*
X7467801Y-10780460D02*
X7458277Y-10770936D01*
X7458277Y-10770936D02*
X7448753Y-10751889D01*
X7448753Y-10751889D02*
X7439229Y-10713793D01*
X7439229Y-10713793D02*
X7439229Y-10666174D01*
X7439229Y-10666174D02*
X7448753Y-10628079D01*
X7448753Y-10628079D02*
X7458277Y-10609031D01*
X7458277Y-10609031D02*
X7467801Y-10599508D01*
X7467801Y-10599508D02*
X7486848Y-10589984D01*
X7620182Y-10589984D02*
X7743991Y-10589984D01*
X7743991Y-10589984D02*
X7677325Y-10666174D01*
X7677325Y-10666174D02*
X7705896Y-10666174D01*
X7705896Y-10666174D02*
X7724944Y-10675698D01*
X7724944Y-10675698D02*
X7734467Y-10685222D01*
X7734467Y-10685222D02*
X7743991Y-10704270D01*
X7743991Y-10704270D02*
X7743991Y-10751889D01*
X7743991Y-10751889D02*
X7734467Y-10770936D01*
X7734467Y-10770936D02*
X7724944Y-10780460D01*
X7724944Y-10780460D02*
X7705896Y-10789984D01*
X7705896Y-10789984D02*
X7648753Y-10789984D01*
X7648753Y-10789984D02*
X7629706Y-10780460D01*
X7629706Y-10780460D02*
X7620182Y-10770936D01*
X7839229Y-10789984D02*
X7877325Y-10789984D01*
X7877325Y-10789984D02*
X7896372Y-10780460D01*
X7896372Y-10780460D02*
X7905896Y-10770936D01*
X7905896Y-10770936D02*
X7924944Y-10742365D01*
X7924944Y-10742365D02*
X7934467Y-10704270D01*
X7934467Y-10704270D02*
X7934467Y-10628079D01*
X7934467Y-10628079D02*
X7924944Y-10609031D01*
X7924944Y-10609031D02*
X7915420Y-10599508D01*
X7915420Y-10599508D02*
X7896372Y-10589984D01*
X7896372Y-10589984D02*
X7858277Y-10589984D01*
X7858277Y-10589984D02*
X7839229Y-10599508D01*
X7839229Y-10599508D02*
X7829706Y-10609031D01*
X7829706Y-10609031D02*
X7820182Y-10628079D01*
X7820182Y-10628079D02*
X7820182Y-10675698D01*
X7820182Y-10675698D02*
X7829706Y-10694746D01*
X7829706Y-10694746D02*
X7839229Y-10704270D01*
X7839229Y-10704270D02*
X7858277Y-10713793D01*
X7858277Y-10713793D02*
X7896372Y-10713793D01*
X7896372Y-10713793D02*
X7915420Y-10704270D01*
X7915420Y-10704270D02*
X7924944Y-10694746D01*
X7924944Y-10694746D02*
X7934467Y-10675698D01*
X8105896Y-10656650D02*
X8105896Y-10789984D01*
X8058277Y-10580460D02*
X8010658Y-10723317D01*
X8010658Y-10723317D02*
X8134467Y-10723317D01*
X8201134Y-10589984D02*
X8201134Y-10628079D01*
X8277325Y-10589984D02*
X8277325Y-10628079D01*
X8572563Y-10866174D02*
X8563039Y-10856650D01*
X8563039Y-10856650D02*
X8543991Y-10828079D01*
X8543991Y-10828079D02*
X8534468Y-10809031D01*
X8534468Y-10809031D02*
X8524944Y-10780460D01*
X8524944Y-10780460D02*
X8515420Y-10732841D01*
X8515420Y-10732841D02*
X8515420Y-10694746D01*
X8515420Y-10694746D02*
X8524944Y-10647127D01*
X8524944Y-10647127D02*
X8534468Y-10618555D01*
X8534468Y-10618555D02*
X8543991Y-10599508D01*
X8543991Y-10599508D02*
X8563039Y-10570936D01*
X8563039Y-10570936D02*
X8572563Y-10561412D01*
X8734468Y-10656650D02*
X8734468Y-10789984D01*
X8686849Y-10580460D02*
X8639230Y-10723317D01*
X8639230Y-10723317D02*
X8763039Y-10723317D01*
X8991611Y-10789984D02*
X8991611Y-10589984D01*
X9077325Y-10789984D02*
X9077325Y-10685222D01*
X9077325Y-10685222D02*
X9067801Y-10666174D01*
X9067801Y-10666174D02*
X9048753Y-10656650D01*
X9048753Y-10656650D02*
X9020182Y-10656650D01*
X9020182Y-10656650D02*
X9001134Y-10666174D01*
X9001134Y-10666174D02*
X8991611Y-10675698D01*
X9201134Y-10789984D02*
X9182087Y-10780460D01*
X9182087Y-10780460D02*
X9172563Y-10770936D01*
X9172563Y-10770936D02*
X9163039Y-10751889D01*
X9163039Y-10751889D02*
X9163039Y-10694746D01*
X9163039Y-10694746D02*
X9172563Y-10675698D01*
X9172563Y-10675698D02*
X9182087Y-10666174D01*
X9182087Y-10666174D02*
X9201134Y-10656650D01*
X9201134Y-10656650D02*
X9229706Y-10656650D01*
X9229706Y-10656650D02*
X9248753Y-10666174D01*
X9248753Y-10666174D02*
X9258277Y-10675698D01*
X9258277Y-10675698D02*
X9267801Y-10694746D01*
X9267801Y-10694746D02*
X9267801Y-10751889D01*
X9267801Y-10751889D02*
X9258277Y-10770936D01*
X9258277Y-10770936D02*
X9248753Y-10780460D01*
X9248753Y-10780460D02*
X9229706Y-10789984D01*
X9229706Y-10789984D02*
X9201134Y-10789984D01*
X9382087Y-10789984D02*
X9363039Y-10780460D01*
X9363039Y-10780460D02*
X9353515Y-10761412D01*
X9353515Y-10761412D02*
X9353515Y-10589984D01*
X9534468Y-10780460D02*
X9515420Y-10789984D01*
X9515420Y-10789984D02*
X9477325Y-10789984D01*
X9477325Y-10789984D02*
X9458277Y-10780460D01*
X9458277Y-10780460D02*
X9448753Y-10761412D01*
X9448753Y-10761412D02*
X9448753Y-10685222D01*
X9448753Y-10685222D02*
X9458277Y-10666174D01*
X9458277Y-10666174D02*
X9477325Y-10656650D01*
X9477325Y-10656650D02*
X9515420Y-10656650D01*
X9515420Y-10656650D02*
X9534468Y-10666174D01*
X9534468Y-10666174D02*
X9543992Y-10685222D01*
X9543992Y-10685222D02*
X9543992Y-10704270D01*
X9543992Y-10704270D02*
X9448753Y-10723317D01*
X9620182Y-10780460D02*
X9639230Y-10789984D01*
X9639230Y-10789984D02*
X9677325Y-10789984D01*
X9677325Y-10789984D02*
X9696373Y-10780460D01*
X9696373Y-10780460D02*
X9705896Y-10761412D01*
X9705896Y-10761412D02*
X9705896Y-10751889D01*
X9705896Y-10751889D02*
X9696373Y-10732841D01*
X9696373Y-10732841D02*
X9677325Y-10723317D01*
X9677325Y-10723317D02*
X9648753Y-10723317D01*
X9648753Y-10723317D02*
X9629706Y-10713793D01*
X9629706Y-10713793D02*
X9620182Y-10694746D01*
X9620182Y-10694746D02*
X9620182Y-10685222D01*
X9620182Y-10685222D02*
X9629706Y-10666174D01*
X9629706Y-10666174D02*
X9648753Y-10656650D01*
X9648753Y-10656650D02*
X9677325Y-10656650D01*
X9677325Y-10656650D02*
X9696373Y-10666174D01*
X9772563Y-10866174D02*
X9782087Y-10856650D01*
X9782087Y-10856650D02*
X9801134Y-10828079D01*
X9801134Y-10828079D02*
X9810658Y-10809031D01*
X9810658Y-10809031D02*
X9820182Y-10780460D01*
X9820182Y-10780460D02*
X9829706Y-10732841D01*
X9829706Y-10732841D02*
X9829706Y-10694746D01*
X9829706Y-10694746D02*
X9820182Y-10647127D01*
X9820182Y-10647127D02*
X9810658Y-10618555D01*
X9810658Y-10618555D02*
X9801134Y-10599508D01*
X9801134Y-10599508D02*
X9782087Y-10570936D01*
X9782087Y-10570936D02*
X9772563Y-10561412D01*
D13*
X4878500Y-10903000D02*
X4997500Y-11022000D01*
X4997500Y-10903000D02*
X4878500Y-11022000D01*
X4997500Y-10962500D02*
G75*
G02*
X4878500Y-10962500I-59500J0D01*
G01*
X4878500Y-10962500D02*
G75*
G02*
X4997500Y-10962500I59500J0D01*
G01*
D11*
X5363039Y-11053984D02*
X5248753Y-11053984D01*
X5305896Y-11053984D02*
X5305896Y-10853984D01*
X5305896Y-10853984D02*
X5286848Y-10882555D01*
X5286848Y-10882555D02*
X5267801Y-10901603D01*
X5267801Y-10901603D02*
X5248753Y-10911127D01*
X5448753Y-11034936D02*
X5458277Y-11044460D01*
X5458277Y-11044460D02*
X5448753Y-11053984D01*
X5448753Y-11053984D02*
X5439229Y-11044460D01*
X5439229Y-11044460D02*
X5448753Y-11034936D01*
X5448753Y-11034936D02*
X5448753Y-11053984D01*
X5648753Y-11053984D02*
X5534467Y-11053984D01*
X5591610Y-11053984D02*
X5591610Y-10853984D01*
X5591610Y-10853984D02*
X5572563Y-10882555D01*
X5572563Y-10882555D02*
X5553515Y-10901603D01*
X5553515Y-10901603D02*
X5534467Y-10911127D01*
X5743991Y-11053984D02*
X5782086Y-11053984D01*
X5782086Y-11053984D02*
X5801134Y-11044460D01*
X5801134Y-11044460D02*
X5810658Y-11034936D01*
X5810658Y-11034936D02*
X5829705Y-11006365D01*
X5829705Y-11006365D02*
X5839229Y-10968270D01*
X5839229Y-10968270D02*
X5839229Y-10892079D01*
X5839229Y-10892079D02*
X5829705Y-10873031D01*
X5829705Y-10873031D02*
X5820182Y-10863508D01*
X5820182Y-10863508D02*
X5801134Y-10853984D01*
X5801134Y-10853984D02*
X5763039Y-10853984D01*
X5763039Y-10853984D02*
X5743991Y-10863508D01*
X5743991Y-10863508D02*
X5734467Y-10873031D01*
X5734467Y-10873031D02*
X5724943Y-10892079D01*
X5724943Y-10892079D02*
X5724943Y-10939698D01*
X5724943Y-10939698D02*
X5734467Y-10958746D01*
X5734467Y-10958746D02*
X5743991Y-10968270D01*
X5743991Y-10968270D02*
X5763039Y-10977793D01*
X5763039Y-10977793D02*
X5801134Y-10977793D01*
X5801134Y-10977793D02*
X5820182Y-10968270D01*
X5820182Y-10968270D02*
X5829705Y-10958746D01*
X5829705Y-10958746D02*
X5839229Y-10939698D01*
X5963039Y-10853984D02*
X5982086Y-10853984D01*
X5982086Y-10853984D02*
X6001134Y-10863508D01*
X6001134Y-10863508D02*
X6010658Y-10873031D01*
X6010658Y-10873031D02*
X6020182Y-10892079D01*
X6020182Y-10892079D02*
X6029705Y-10930174D01*
X6029705Y-10930174D02*
X6029705Y-10977793D01*
X6029705Y-10977793D02*
X6020182Y-11015889D01*
X6020182Y-11015889D02*
X6010658Y-11034936D01*
X6010658Y-11034936D02*
X6001134Y-11044460D01*
X6001134Y-11044460D02*
X5982086Y-11053984D01*
X5982086Y-11053984D02*
X5963039Y-11053984D01*
X5963039Y-11053984D02*
X5943991Y-11044460D01*
X5943991Y-11044460D02*
X5934467Y-11034936D01*
X5934467Y-11034936D02*
X5924943Y-11015889D01*
X5924943Y-11015889D02*
X5915420Y-10977793D01*
X5915420Y-10977793D02*
X5915420Y-10930174D01*
X5915420Y-10930174D02*
X5924943Y-10892079D01*
X5924943Y-10892079D02*
X5934467Y-10873031D01*
X5934467Y-10873031D02*
X5943991Y-10863508D01*
X5943991Y-10863508D02*
X5963039Y-10853984D01*
X6115420Y-11053984D02*
X6115420Y-10920650D01*
X6115420Y-10939698D02*
X6124943Y-10930174D01*
X6124943Y-10930174D02*
X6143991Y-10920650D01*
X6143991Y-10920650D02*
X6172563Y-10920650D01*
X6172563Y-10920650D02*
X6191610Y-10930174D01*
X6191610Y-10930174D02*
X6201134Y-10949222D01*
X6201134Y-10949222D02*
X6201134Y-11053984D01*
X6201134Y-10949222D02*
X6210658Y-10930174D01*
X6210658Y-10930174D02*
X6229705Y-10920650D01*
X6229705Y-10920650D02*
X6258277Y-10920650D01*
X6258277Y-10920650D02*
X6277324Y-10930174D01*
X6277324Y-10930174D02*
X6286848Y-10949222D01*
X6286848Y-10949222D02*
X6286848Y-11053984D01*
X6382086Y-11053984D02*
X6382086Y-10920650D01*
X6382086Y-10939698D02*
X6391610Y-10930174D01*
X6391610Y-10930174D02*
X6410658Y-10920650D01*
X6410658Y-10920650D02*
X6439229Y-10920650D01*
X6439229Y-10920650D02*
X6458277Y-10930174D01*
X6458277Y-10930174D02*
X6467801Y-10949222D01*
X6467801Y-10949222D02*
X6467801Y-11053984D01*
X6467801Y-10949222D02*
X6477324Y-10930174D01*
X6477324Y-10930174D02*
X6496372Y-10920650D01*
X6496372Y-10920650D02*
X6524943Y-10920650D01*
X6524943Y-10920650D02*
X6543991Y-10930174D01*
X6543991Y-10930174D02*
X6553515Y-10949222D01*
X6553515Y-10949222D02*
X6553515Y-11053984D01*
X6943991Y-10844460D02*
X6772563Y-11101603D01*
X7201134Y-10853984D02*
X7220182Y-10853984D01*
X7220182Y-10853984D02*
X7239229Y-10863508D01*
X7239229Y-10863508D02*
X7248753Y-10873031D01*
X7248753Y-10873031D02*
X7258277Y-10892079D01*
X7258277Y-10892079D02*
X7267801Y-10930174D01*
X7267801Y-10930174D02*
X7267801Y-10977793D01*
X7267801Y-10977793D02*
X7258277Y-11015889D01*
X7258277Y-11015889D02*
X7248753Y-11034936D01*
X7248753Y-11034936D02*
X7239229Y-11044460D01*
X7239229Y-11044460D02*
X7220182Y-11053984D01*
X7220182Y-11053984D02*
X7201134Y-11053984D01*
X7201134Y-11053984D02*
X7182086Y-11044460D01*
X7182086Y-11044460D02*
X7172563Y-11034936D01*
X7172563Y-11034936D02*
X7163039Y-11015889D01*
X7163039Y-11015889D02*
X7153515Y-10977793D01*
X7153515Y-10977793D02*
X7153515Y-10930174D01*
X7153515Y-10930174D02*
X7163039Y-10892079D01*
X7163039Y-10892079D02*
X7172563Y-10873031D01*
X7172563Y-10873031D02*
X7182086Y-10863508D01*
X7182086Y-10863508D02*
X7201134Y-10853984D01*
X7353515Y-11034936D02*
X7363039Y-11044460D01*
X7363039Y-11044460D02*
X7353515Y-11053984D01*
X7353515Y-11053984D02*
X7343991Y-11044460D01*
X7343991Y-11044460D02*
X7353515Y-11034936D01*
X7353515Y-11034936D02*
X7353515Y-11053984D01*
X7486848Y-10853984D02*
X7505896Y-10853984D01*
X7505896Y-10853984D02*
X7524944Y-10863508D01*
X7524944Y-10863508D02*
X7534467Y-10873031D01*
X7534467Y-10873031D02*
X7543991Y-10892079D01*
X7543991Y-10892079D02*
X7553515Y-10930174D01*
X7553515Y-10930174D02*
X7553515Y-10977793D01*
X7553515Y-10977793D02*
X7543991Y-11015889D01*
X7543991Y-11015889D02*
X7534467Y-11034936D01*
X7534467Y-11034936D02*
X7524944Y-11044460D01*
X7524944Y-11044460D02*
X7505896Y-11053984D01*
X7505896Y-11053984D02*
X7486848Y-11053984D01*
X7486848Y-11053984D02*
X7467801Y-11044460D01*
X7467801Y-11044460D02*
X7458277Y-11034936D01*
X7458277Y-11034936D02*
X7448753Y-11015889D01*
X7448753Y-11015889D02*
X7439229Y-10977793D01*
X7439229Y-10977793D02*
X7439229Y-10930174D01*
X7439229Y-10930174D02*
X7448753Y-10892079D01*
X7448753Y-10892079D02*
X7458277Y-10873031D01*
X7458277Y-10873031D02*
X7467801Y-10863508D01*
X7467801Y-10863508D02*
X7486848Y-10853984D01*
X7724944Y-10920650D02*
X7724944Y-11053984D01*
X7677325Y-10844460D02*
X7629706Y-10987317D01*
X7629706Y-10987317D02*
X7753515Y-10987317D01*
X7915420Y-10853984D02*
X7877325Y-10853984D01*
X7877325Y-10853984D02*
X7858277Y-10863508D01*
X7858277Y-10863508D02*
X7848753Y-10873031D01*
X7848753Y-10873031D02*
X7829706Y-10901603D01*
X7829706Y-10901603D02*
X7820182Y-10939698D01*
X7820182Y-10939698D02*
X7820182Y-11015889D01*
X7820182Y-11015889D02*
X7829706Y-11034936D01*
X7829706Y-11034936D02*
X7839229Y-11044460D01*
X7839229Y-11044460D02*
X7858277Y-11053984D01*
X7858277Y-11053984D02*
X7896372Y-11053984D01*
X7896372Y-11053984D02*
X7915420Y-11044460D01*
X7915420Y-11044460D02*
X7924944Y-11034936D01*
X7924944Y-11034936D02*
X7934467Y-11015889D01*
X7934467Y-11015889D02*
X7934467Y-10968270D01*
X7934467Y-10968270D02*
X7924944Y-10949222D01*
X7924944Y-10949222D02*
X7915420Y-10939698D01*
X7915420Y-10939698D02*
X7896372Y-10930174D01*
X7896372Y-10930174D02*
X7858277Y-10930174D01*
X7858277Y-10930174D02*
X7839229Y-10939698D01*
X7839229Y-10939698D02*
X7829706Y-10949222D01*
X7829706Y-10949222D02*
X7820182Y-10968270D01*
X8029706Y-11053984D02*
X8067801Y-11053984D01*
X8067801Y-11053984D02*
X8086848Y-11044460D01*
X8086848Y-11044460D02*
X8096372Y-11034936D01*
X8096372Y-11034936D02*
X8115420Y-11006365D01*
X8115420Y-11006365D02*
X8124944Y-10968270D01*
X8124944Y-10968270D02*
X8124944Y-10892079D01*
X8124944Y-10892079D02*
X8115420Y-10873031D01*
X8115420Y-10873031D02*
X8105896Y-10863508D01*
X8105896Y-10863508D02*
X8086848Y-10853984D01*
X8086848Y-10853984D02*
X8048753Y-10853984D01*
X8048753Y-10853984D02*
X8029706Y-10863508D01*
X8029706Y-10863508D02*
X8020182Y-10873031D01*
X8020182Y-10873031D02*
X8010658Y-10892079D01*
X8010658Y-10892079D02*
X8010658Y-10939698D01*
X8010658Y-10939698D02*
X8020182Y-10958746D01*
X8020182Y-10958746D02*
X8029706Y-10968270D01*
X8029706Y-10968270D02*
X8048753Y-10977793D01*
X8048753Y-10977793D02*
X8086848Y-10977793D01*
X8086848Y-10977793D02*
X8105896Y-10968270D01*
X8105896Y-10968270D02*
X8115420Y-10958746D01*
X8115420Y-10958746D02*
X8124944Y-10939698D01*
X8201134Y-10853984D02*
X8201134Y-10892079D01*
X8277325Y-10853984D02*
X8277325Y-10892079D01*
X8572563Y-11130174D02*
X8563039Y-11120650D01*
X8563039Y-11120650D02*
X8543991Y-11092079D01*
X8543991Y-11092079D02*
X8534468Y-11073031D01*
X8534468Y-11073031D02*
X8524944Y-11044460D01*
X8524944Y-11044460D02*
X8515420Y-10996841D01*
X8515420Y-10996841D02*
X8515420Y-10958746D01*
X8515420Y-10958746D02*
X8524944Y-10911127D01*
X8524944Y-10911127D02*
X8534468Y-10882555D01*
X8534468Y-10882555D02*
X8543991Y-10863508D01*
X8543991Y-10863508D02*
X8563039Y-10834936D01*
X8563039Y-10834936D02*
X8572563Y-10825412D01*
X8734468Y-10920650D02*
X8734468Y-11053984D01*
X8686849Y-10844460D02*
X8639230Y-10987317D01*
X8639230Y-10987317D02*
X8763039Y-10987317D01*
X8991611Y-11053984D02*
X8991611Y-10853984D01*
X9077325Y-11053984D02*
X9077325Y-10949222D01*
X9077325Y-10949222D02*
X9067801Y-10930174D01*
X9067801Y-10930174D02*
X9048753Y-10920650D01*
X9048753Y-10920650D02*
X9020182Y-10920650D01*
X9020182Y-10920650D02*
X9001134Y-10930174D01*
X9001134Y-10930174D02*
X8991611Y-10939698D01*
X9201134Y-11053984D02*
X9182087Y-11044460D01*
X9182087Y-11044460D02*
X9172563Y-11034936D01*
X9172563Y-11034936D02*
X9163039Y-11015889D01*
X9163039Y-11015889D02*
X9163039Y-10958746D01*
X9163039Y-10958746D02*
X9172563Y-10939698D01*
X9172563Y-10939698D02*
X9182087Y-10930174D01*
X9182087Y-10930174D02*
X9201134Y-10920650D01*
X9201134Y-10920650D02*
X9229706Y-10920650D01*
X9229706Y-10920650D02*
X9248753Y-10930174D01*
X9248753Y-10930174D02*
X9258277Y-10939698D01*
X9258277Y-10939698D02*
X9267801Y-10958746D01*
X9267801Y-10958746D02*
X9267801Y-11015889D01*
X9267801Y-11015889D02*
X9258277Y-11034936D01*
X9258277Y-11034936D02*
X9248753Y-11044460D01*
X9248753Y-11044460D02*
X9229706Y-11053984D01*
X9229706Y-11053984D02*
X9201134Y-11053984D01*
X9382087Y-11053984D02*
X9363039Y-11044460D01*
X9363039Y-11044460D02*
X9353515Y-11025412D01*
X9353515Y-11025412D02*
X9353515Y-10853984D01*
X9534468Y-11044460D02*
X9515420Y-11053984D01*
X9515420Y-11053984D02*
X9477325Y-11053984D01*
X9477325Y-11053984D02*
X9458277Y-11044460D01*
X9458277Y-11044460D02*
X9448753Y-11025412D01*
X9448753Y-11025412D02*
X9448753Y-10949222D01*
X9448753Y-10949222D02*
X9458277Y-10930174D01*
X9458277Y-10930174D02*
X9477325Y-10920650D01*
X9477325Y-10920650D02*
X9515420Y-10920650D01*
X9515420Y-10920650D02*
X9534468Y-10930174D01*
X9534468Y-10930174D02*
X9543992Y-10949222D01*
X9543992Y-10949222D02*
X9543992Y-10968270D01*
X9543992Y-10968270D02*
X9448753Y-10987317D01*
X9620182Y-11044460D02*
X9639230Y-11053984D01*
X9639230Y-11053984D02*
X9677325Y-11053984D01*
X9677325Y-11053984D02*
X9696373Y-11044460D01*
X9696373Y-11044460D02*
X9705896Y-11025412D01*
X9705896Y-11025412D02*
X9705896Y-11015889D01*
X9705896Y-11015889D02*
X9696373Y-10996841D01*
X9696373Y-10996841D02*
X9677325Y-10987317D01*
X9677325Y-10987317D02*
X9648753Y-10987317D01*
X9648753Y-10987317D02*
X9629706Y-10977793D01*
X9629706Y-10977793D02*
X9620182Y-10958746D01*
X9620182Y-10958746D02*
X9620182Y-10949222D01*
X9620182Y-10949222D02*
X9629706Y-10930174D01*
X9629706Y-10930174D02*
X9648753Y-10920650D01*
X9648753Y-10920650D02*
X9677325Y-10920650D01*
X9677325Y-10920650D02*
X9696373Y-10930174D01*
X9772563Y-11130174D02*
X9782087Y-11120650D01*
X9782087Y-11120650D02*
X9801134Y-11092079D01*
X9801134Y-11092079D02*
X9810658Y-11073031D01*
X9810658Y-11073031D02*
X9820182Y-11044460D01*
X9820182Y-11044460D02*
X9829706Y-10996841D01*
X9829706Y-10996841D02*
X9829706Y-10958746D01*
X9829706Y-10958746D02*
X9820182Y-10911127D01*
X9820182Y-10911127D02*
X9810658Y-10882555D01*
X9810658Y-10882555D02*
X9801134Y-10863508D01*
X9801134Y-10863508D02*
X9782087Y-10834936D01*
X9782087Y-10834936D02*
X9772563Y-10825412D01*
M02*
