%TF.GenerationSoftware,KiCad,Pcbnew,8.0.3*%
%TF.CreationDate,2024-07-13T20:38:16+02:00*%
%TF.ProjectId,Steuerplatine,53746575-6572-4706-9c61-74696e652e6b,rev?*%
%TF.SameCoordinates,Original*%
%TF.FileFunction,Paste,Top*%
%TF.FilePolarity,Positive*%
%FSLAX46Y46*%
G04 Gerber Fmt 4.6, Leading zero omitted, Abs format (unit mm)*
G04 Created by KiCad (PCBNEW 8.0.3) date 2024-07-13 20:38:16*
%MOMM*%
%LPD*%
G01*
G04 APERTURE LIST*
G04 Aperture macros list*
%AMRoundRect*
0 Rectangle with rounded corners*
0 $1 Rounding radius*
0 $2 $3 $4 $5 $6 $7 $8 $9 X,Y pos of 4 corners*
0 Add a 4 corners polygon primitive as box body*
4,1,4,$2,$3,$4,$5,$6,$7,$8,$9,$2,$3,0*
0 Add four circle primitives for the rounded corners*
1,1,$1+$1,$2,$3*
1,1,$1+$1,$4,$5*
1,1,$1+$1,$6,$7*
1,1,$1+$1,$8,$9*
0 Add four rect primitives between the rounded corners*
20,1,$1+$1,$2,$3,$4,$5,0*
20,1,$1+$1,$4,$5,$6,$7,0*
20,1,$1+$1,$6,$7,$8,$9,0*
20,1,$1+$1,$8,$9,$2,$3,0*%
G04 Aperture macros list end*
%ADD10RoundRect,0.150000X0.150000X0.425000X-0.150000X0.425000X-0.150000X-0.425000X0.150000X-0.425000X0*%
%ADD11RoundRect,0.075000X0.075000X0.500000X-0.075000X0.500000X-0.075000X-0.500000X0.075000X-0.500000X0*%
%ADD12O,1.000000X2.100000*%
%ADD13O,1.000000X1.800000*%
%ADD14RoundRect,0.150000X-0.150000X0.725000X-0.150000X-0.725000X0.150000X-0.725000X0.150000X0.725000X0*%
%ADD15RoundRect,0.250000X-0.250000X-0.475000X0.250000X-0.475000X0.250000X0.475000X-0.250000X0.475000X0*%
%ADD16RoundRect,0.250000X0.250000X0.475000X-0.250000X0.475000X-0.250000X-0.475000X0.250000X-0.475000X0*%
%ADD17RoundRect,0.250000X-0.475000X0.250000X-0.475000X-0.250000X0.475000X-0.250000X0.475000X0.250000X0*%
%ADD18RoundRect,0.250000X0.400000X0.625000X-0.400000X0.625000X-0.400000X-0.625000X0.400000X-0.625000X0*%
%ADD19RoundRect,0.150000X-0.875000X-0.150000X0.875000X-0.150000X0.875000X0.150000X-0.875000X0.150000X0*%
%ADD20R,5.000000X5.000000*%
%ADD21R,4.000000X4.000000*%
%ADD22RoundRect,0.250000X-0.625000X0.400000X-0.625000X-0.400000X0.625000X-0.400000X0.625000X0.400000X0*%
%ADD23RoundRect,0.375000X0.375000X-0.625000X0.375000X0.625000X-0.375000X0.625000X-0.375000X-0.625000X0*%
%ADD24RoundRect,0.500000X1.400000X-0.500000X1.400000X0.500000X-1.400000X0.500000X-1.400000X-0.500000X0*%
%ADD25R,0.900000X0.900000*%
%ADD26R,1.500000X0.900000*%
%ADD27R,0.900000X1.500000*%
G04 APERTURE END LIST*
D10*
%TO.C,J33*%
X154700000Y-37255000D03*
X153900000Y-37255000D03*
D11*
X152750000Y-37254999D03*
X151750000Y-37255000D03*
X151250000Y-37255000D03*
X150250000Y-37254999D03*
D10*
X149100000Y-37255000D03*
X148300000Y-37255000D03*
X148300000Y-37255000D03*
X149100000Y-37255000D03*
D11*
X149750000Y-37255000D03*
X150750000Y-37255000D03*
X152250000Y-37255000D03*
X153250000Y-37255000D03*
D10*
X153900000Y-37255000D03*
X154700000Y-37255000D03*
D12*
X155820000Y-36680000D03*
D13*
X155820000Y-32500000D03*
D12*
X147180000Y-36680000D03*
D13*
X147180000Y-32500000D03*
%TD*%
D14*
%TO.C,U9*%
X147590002Y-70000000D03*
X146320001Y-70000000D03*
X145050000Y-70000000D03*
X143780001Y-70000000D03*
X142510001Y-70000000D03*
X141240002Y-70000000D03*
X139970001Y-70000000D03*
X138700000Y-70000000D03*
X138700000Y-75150000D03*
X139970001Y-75150000D03*
X141240002Y-75150000D03*
X142510001Y-75150000D03*
X143780001Y-75150000D03*
X145050000Y-75150000D03*
X146320001Y-75150000D03*
X147590002Y-75150000D03*
%TD*%
D15*
%TO.C,C11*%
X72750000Y-67800000D03*
X74650000Y-67800000D03*
%TD*%
%TO.C,C2*%
X217450000Y-67800000D03*
X219350000Y-67800000D03*
%TD*%
%TO.C,C4*%
X153350000Y-67800000D03*
X155250000Y-67800000D03*
%TD*%
D14*
%TO.C,U8*%
X198300000Y-70000000D03*
X197029999Y-70000000D03*
X195759998Y-70000000D03*
X194489999Y-70000000D03*
X193219999Y-70000000D03*
X191950000Y-70000000D03*
X190679999Y-70000000D03*
X189409998Y-70000000D03*
X189409998Y-75150000D03*
X190679999Y-75150000D03*
X191950000Y-75150000D03*
X193219999Y-75150000D03*
X194489999Y-75150000D03*
X195759998Y-75150000D03*
X197029999Y-75150000D03*
X198300000Y-75150000D03*
%TD*%
D16*
%TO.C,C13*%
X170949999Y-43000000D03*
X169050001Y-43000000D03*
%TD*%
D15*
%TO.C,C1*%
X230750000Y-67800000D03*
X232650000Y-67800000D03*
%TD*%
%TO.C,C9*%
X136750000Y-67800000D03*
X138650000Y-67800000D03*
%TD*%
%TO.C,C14*%
X205250000Y-39300000D03*
X207150000Y-39300000D03*
%TD*%
D17*
%TO.C,C15*%
X105900000Y-43750001D03*
X105900000Y-45649999D03*
%TD*%
D18*
%TO.C,R5*%
X153450001Y-43100000D03*
X150349999Y-43100000D03*
%TD*%
D14*
%TO.C,U1*%
X241590002Y-70000000D03*
X240320001Y-70000000D03*
X239050000Y-70000000D03*
X237780001Y-70000000D03*
X236510001Y-70000000D03*
X235240002Y-70000000D03*
X233970001Y-70000000D03*
X232700000Y-70000000D03*
X232700000Y-75150000D03*
X233970001Y-75150000D03*
X235240002Y-75150000D03*
X236510001Y-75150000D03*
X237780001Y-75150000D03*
X239050000Y-75150000D03*
X240320001Y-75150000D03*
X241590002Y-75150000D03*
%TD*%
D19*
%TO.C,U13*%
X201400000Y-44000000D03*
X201400000Y-45270000D03*
X201400000Y-46540000D03*
X201400000Y-47810000D03*
X201400000Y-49080000D03*
X201400000Y-50350000D03*
X201400000Y-51620000D03*
X201400000Y-52890000D03*
X210700000Y-52890000D03*
X210700000Y-51620000D03*
X210700000Y-50350000D03*
X210700000Y-49080000D03*
X210700000Y-47810000D03*
X210700000Y-46540000D03*
X210700000Y-45270000D03*
X210700000Y-44000000D03*
%TD*%
D14*
%TO.C,U5*%
X113590002Y-70000000D03*
X112320001Y-70000000D03*
X111050000Y-70000000D03*
X109780001Y-70000000D03*
X108510001Y-70000000D03*
X107240002Y-70000000D03*
X105970001Y-70000000D03*
X104700000Y-70000000D03*
X104700000Y-75150000D03*
X105970001Y-75150000D03*
X107240002Y-75150000D03*
X108510001Y-75150000D03*
X109780001Y-75150000D03*
X111050000Y-75150000D03*
X112320001Y-75150000D03*
X113590002Y-75150000D03*
%TD*%
D15*
%TO.C,C8*%
X187500000Y-67800000D03*
X189400000Y-67800000D03*
%TD*%
D14*
%TO.C,U3*%
X177590002Y-70000000D03*
X176320001Y-70000000D03*
X175050000Y-70000000D03*
X173780001Y-70000000D03*
X172510001Y-70000000D03*
X171240002Y-70000000D03*
X169970001Y-70000000D03*
X168700000Y-70000000D03*
X168700000Y-75150000D03*
X169970001Y-75150000D03*
X171240002Y-75150000D03*
X172510001Y-75150000D03*
X173780001Y-75150000D03*
X175050000Y-75150000D03*
X176320001Y-75150000D03*
X177590002Y-75150000D03*
%TD*%
%TO.C,U10*%
X134300000Y-70000000D03*
X133029999Y-70000000D03*
X131759998Y-70000000D03*
X130489999Y-70000000D03*
X129219999Y-70000000D03*
X127950000Y-70000000D03*
X126679999Y-70000000D03*
X125409998Y-70000000D03*
X125409998Y-75150000D03*
X126679999Y-75150000D03*
X127950000Y-75150000D03*
X129219999Y-75150000D03*
X130489999Y-75150000D03*
X131759998Y-75150000D03*
X133029999Y-75150000D03*
X134300000Y-75150000D03*
%TD*%
D20*
%TO.C,BT1*%
X220050000Y-45509227D03*
X245950000Y-45509227D03*
D21*
X233000000Y-45509227D03*
%TD*%
D18*
%TO.C,R4*%
X163150001Y-43100000D03*
X160049999Y-43100000D03*
%TD*%
D22*
%TO.C,R2*%
X124300000Y-48149999D03*
X124300000Y-51250001D03*
%TD*%
D14*
%TO.C,U7*%
X211590002Y-70000000D03*
X210320001Y-70000000D03*
X209050000Y-70000000D03*
X207780001Y-70000000D03*
X206510001Y-70000000D03*
X205240002Y-70000000D03*
X203970001Y-70000000D03*
X202700000Y-70000000D03*
X202700000Y-75150000D03*
X203970001Y-75150000D03*
X205240002Y-75150000D03*
X206510001Y-75150000D03*
X207780001Y-75150000D03*
X209050000Y-75150000D03*
X210320001Y-75150000D03*
X211590002Y-75150000D03*
%TD*%
D15*
%TO.C,C6*%
X89550000Y-67800000D03*
X91450000Y-67800000D03*
%TD*%
%TO.C,C12*%
X59550000Y-67800000D03*
X61450000Y-67800000D03*
%TD*%
D14*
%TO.C,U12*%
X70300000Y-70000000D03*
X69029999Y-70000000D03*
X67759998Y-70000000D03*
X66489999Y-70000000D03*
X65219999Y-70000000D03*
X63950000Y-70000000D03*
X62679999Y-70000000D03*
X61409998Y-70000000D03*
X61409998Y-75150000D03*
X62679999Y-75150000D03*
X63950000Y-75150000D03*
X65219999Y-75150000D03*
X66489999Y-75150000D03*
X67759998Y-75150000D03*
X69029999Y-75150000D03*
X70300000Y-75150000D03*
%TD*%
%TO.C,U4*%
X164300000Y-70000000D03*
X163029999Y-70000000D03*
X161759998Y-70000000D03*
X160489999Y-70000000D03*
X159219999Y-70000000D03*
X157950000Y-70000000D03*
X156679999Y-70000000D03*
X155409998Y-70000000D03*
X155409998Y-75150000D03*
X156679999Y-75150000D03*
X157950000Y-75150000D03*
X159219999Y-75150000D03*
X160489999Y-75150000D03*
X161759998Y-75150000D03*
X163029999Y-75150000D03*
X164300000Y-75150000D03*
%TD*%
D22*
%TO.C,R3*%
X126900000Y-48149999D03*
X126900000Y-51250001D03*
%TD*%
%TO.C,R1*%
X121800000Y-48149999D03*
X121800000Y-51250001D03*
%TD*%
D15*
%TO.C,C5*%
X102750000Y-67700000D03*
X104650000Y-67700000D03*
%TD*%
D14*
%TO.C,U2*%
X228300000Y-70000000D03*
X227029999Y-70000000D03*
X225759998Y-70000000D03*
X224489999Y-70000000D03*
X223219999Y-70000000D03*
X221950000Y-70000000D03*
X220679999Y-70000000D03*
X219409998Y-70000000D03*
X219409998Y-75150000D03*
X220679999Y-75150000D03*
X221950000Y-75150000D03*
X223219999Y-75150000D03*
X224489999Y-75150000D03*
X225759998Y-75150000D03*
X227029999Y-75150000D03*
X228300000Y-75150000D03*
%TD*%
D23*
%TO.C,U15*%
X134300000Y-42599999D03*
X136600000Y-42599998D03*
D24*
X136600000Y-36300000D03*
D23*
X138900000Y-42599999D03*
%TD*%
D15*
%TO.C,C7*%
X200850000Y-67800000D03*
X202750000Y-67800000D03*
%TD*%
D25*
%TO.C,U14*%
X180750000Y-43920000D03*
X180750000Y-45320000D03*
X180750000Y-46720000D03*
X182150000Y-43920000D03*
X182150000Y-45320000D03*
X182150000Y-46720000D03*
X183550000Y-43920000D03*
X183550000Y-45320000D03*
X183550000Y-46720000D03*
D26*
X174900000Y-37600000D03*
X174900000Y-38870000D03*
X174900000Y-40140000D03*
X174900000Y-41410000D03*
X174900000Y-42680000D03*
X174900000Y-43950000D03*
X174900000Y-45220000D03*
X174900000Y-46490000D03*
X174900000Y-47760000D03*
X174900000Y-49030000D03*
X174900000Y-50300000D03*
X174900000Y-51570000D03*
X174900000Y-52840000D03*
X174900000Y-54110000D03*
D27*
X176665000Y-55360000D03*
X177935000Y-55360000D03*
X179205000Y-55360000D03*
X180475000Y-55360000D03*
X181745000Y-55360000D03*
X183015000Y-55360000D03*
X184285000Y-55360000D03*
X185555000Y-55360000D03*
X186825000Y-55360000D03*
X188095000Y-55360000D03*
X189365000Y-55360000D03*
X190635000Y-55360000D03*
D26*
X192400000Y-54110000D03*
X192400000Y-52840000D03*
X192400000Y-51570000D03*
X192400000Y-50300000D03*
X192400000Y-49030000D03*
X192400000Y-47760000D03*
X192400000Y-46490000D03*
X192400000Y-45220000D03*
X192400000Y-43950000D03*
X192400000Y-42680000D03*
X192400000Y-41410000D03*
X192400000Y-40140000D03*
X192400000Y-38870000D03*
X192400000Y-37600000D03*
%TD*%
D14*
%TO.C,U6*%
X100300000Y-70000000D03*
X99029999Y-70000000D03*
X97759998Y-70000000D03*
X96489999Y-70000000D03*
X95219999Y-70000000D03*
X93950000Y-70000000D03*
X92679999Y-70000000D03*
X91409998Y-70000000D03*
X91409998Y-75150000D03*
X92679999Y-75150000D03*
X93950000Y-75150000D03*
X95219999Y-75150000D03*
X96489999Y-75150000D03*
X97759998Y-75150000D03*
X99029999Y-75150000D03*
X100300000Y-75150000D03*
%TD*%
D15*
%TO.C,C10*%
X123450000Y-67800000D03*
X125350000Y-67800000D03*
%TD*%
D14*
%TO.C,U11*%
X83590002Y-70000000D03*
X82320001Y-70000000D03*
X81050000Y-70000000D03*
X79780001Y-70000000D03*
X78510001Y-70000000D03*
X77240002Y-70000000D03*
X75970001Y-70000000D03*
X74700000Y-70000000D03*
X74700000Y-75150000D03*
X75970001Y-75150000D03*
X77240002Y-75150000D03*
X78510001Y-75150000D03*
X79780001Y-75150000D03*
X81050000Y-75150000D03*
X82320001Y-75150000D03*
X83590002Y-75150000D03*
%TD*%
D15*
%TO.C,C3*%
X166750000Y-67800000D03*
X168650000Y-67800000D03*
%TD*%
M02*
