%TF.GenerationSoftware,KiCad,Pcbnew,8.0.3*%
%TF.CreationDate,2024-07-13T20:38:16+02:00*%
%TF.ProjectId,Steuerplatine,53746575-6572-4706-9c61-74696e652e6b,rev?*%
%TF.SameCoordinates,Original*%
%TF.FileFunction,Soldermask,Bot*%
%TF.FilePolarity,Negative*%
%FSLAX46Y46*%
G04 Gerber Fmt 4.6, Leading zero omitted, Abs format (unit mm)*
G04 Created by KiCad (PCBNEW 8.0.3) date 2024-07-13 20:38:16*
%MOMM*%
%LPD*%
G01*
G04 APERTURE LIST*
G04 Aperture macros list*
%AMRoundRect*
0 Rectangle with rounded corners*
0 $1 Rounding radius*
0 $2 $3 $4 $5 $6 $7 $8 $9 X,Y pos of 4 corners*
0 Add a 4 corners polygon primitive as box body*
4,1,4,$2,$3,$4,$5,$6,$7,$8,$9,$2,$3,0*
0 Add four circle primitives for the rounded corners*
1,1,$1+$1,$2,$3*
1,1,$1+$1,$4,$5*
1,1,$1+$1,$6,$7*
1,1,$1+$1,$8,$9*
0 Add four rect primitives between the rounded corners*
20,1,$1+$1,$2,$3,$4,$5,0*
20,1,$1+$1,$4,$5,$6,$7,0*
20,1,$1+$1,$6,$7,$8,$9,0*
20,1,$1+$1,$8,$9,$2,$3,0*%
G04 Aperture macros list end*
%ADD10R,1.350000X1.350000*%
%ADD11C,0.650000*%
%ADD12O,1.000000X2.100000*%
%ADD13O,1.000000X1.800000*%
%ADD14O,1.350000X1.350000*%
%ADD15R,1.600000X1.600000*%
%ADD16C,1.600000*%
%ADD17RoundRect,0.250000X-0.620000X-0.845000X0.620000X-0.845000X0.620000X0.845000X-0.620000X0.845000X0*%
%ADD18O,1.740000X2.190000*%
%ADD19R,1.700000X1.700000*%
%ADD20O,1.700000X1.700000*%
G04 APERTURE END LIST*
D10*
%TO.C,J15*%
X91500000Y-61500000D03*
%TD*%
D11*
%TO.C,J33*%
X154390000Y-36180000D03*
X148610000Y-36180000D03*
D12*
X155820000Y-36680000D03*
D13*
X155820000Y-32500000D03*
D12*
X147180000Y-36680000D03*
D13*
X147180000Y-32500000D03*
%TD*%
D10*
%TO.C,J27*%
X83500000Y-61500000D03*
%TD*%
%TO.C,J21*%
X69500000Y-61500000D03*
D14*
X71500000Y-61500000D03*
X73500000Y-61500000D03*
X75500000Y-61500000D03*
%TD*%
D10*
%TO.C,J2*%
X155500000Y-83500000D03*
D14*
X157500000Y-83500000D03*
X159500000Y-83500000D03*
%TD*%
D10*
%TO.C,J29*%
X125500000Y-61500000D03*
%TD*%
%TO.C,J3*%
X91500000Y-83500000D03*
D14*
X93500000Y-83500000D03*
X95500000Y-83500000D03*
%TD*%
D10*
%TO.C,J22*%
X207500000Y-83500000D03*
D14*
X209500000Y-83500000D03*
X211500000Y-83500000D03*
%TD*%
D15*
%TO.C,C16*%
X152000000Y-52200000D03*
D16*
X155500000Y-52200000D03*
%TD*%
D10*
%TO.C,J18*%
X61499999Y-83500000D03*
D14*
X63499999Y-83500000D03*
X65499999Y-83500000D03*
%TD*%
D10*
%TO.C,J14*%
X155500000Y-61500000D03*
%TD*%
%TO.C,J5*%
X163500000Y-61500000D03*
D14*
X165500000Y-61500000D03*
X167500000Y-61500000D03*
X169500000Y-61500000D03*
%TD*%
D10*
%TO.C,J9*%
X109500000Y-83500000D03*
D14*
X111500000Y-83500000D03*
X113500000Y-83500000D03*
%TD*%
D10*
%TO.C,J8*%
X173500000Y-83500000D03*
D14*
X175500000Y-83500000D03*
X177500000Y-83500000D03*
%TD*%
D10*
%TO.C,J16*%
X189500000Y-83500000D03*
D14*
X191500000Y-83500000D03*
X193500000Y-83500000D03*
%TD*%
D10*
%TO.C,J10*%
X241500000Y-61500000D03*
%TD*%
%TO.C,J7*%
X237500000Y-83500000D03*
D14*
X239500000Y-83500000D03*
X241500000Y-83500000D03*
%TD*%
D10*
%TO.C,J20*%
X133500000Y-61500000D03*
D14*
X135500000Y-61500000D03*
X137500000Y-61500000D03*
X139500000Y-61500000D03*
%TD*%
D10*
%TO.C,J28*%
X189500000Y-61500000D03*
%TD*%
%TO.C,J17*%
X125500000Y-83500000D03*
D14*
X127500000Y-83500000D03*
X129500000Y-83500000D03*
%TD*%
D10*
%TO.C,J4*%
X227500000Y-61500000D03*
D14*
X229500000Y-61500000D03*
X231500000Y-61500000D03*
X233500000Y-61500000D03*
%TD*%
D10*
%TO.C,J25*%
X211500000Y-61500000D03*
%TD*%
%TO.C,J19*%
X197500000Y-61500000D03*
D14*
X199500000Y-61500000D03*
X201500000Y-61500000D03*
X203500000Y-61500000D03*
%TD*%
D10*
%TO.C,J24*%
X79500000Y-83500000D03*
D14*
X81500000Y-83500000D03*
X83500000Y-83500000D03*
%TD*%
D10*
%TO.C,J6*%
X99500000Y-61500000D03*
D14*
X101500000Y-61500000D03*
X103500000Y-61500000D03*
X105500000Y-61500000D03*
%TD*%
D17*
%TO.C,J32*%
X121780000Y-39800000D03*
D18*
X124320000Y-39800000D03*
X126860000Y-39800000D03*
X129400000Y-39800000D03*
%TD*%
D10*
%TO.C,J1*%
X219500000Y-83500000D03*
D14*
X221500000Y-83500000D03*
X223500000Y-83500000D03*
%TD*%
D10*
%TO.C,J26*%
X147500000Y-61500000D03*
%TD*%
%TO.C,J30*%
X61500000Y-61500000D03*
%TD*%
%TO.C,J13*%
X219500000Y-61500000D03*
%TD*%
%TO.C,J23*%
X143500000Y-83500000D03*
D14*
X145500000Y-83500000D03*
X147500000Y-83500000D03*
%TD*%
D19*
%TO.C,J31*%
X110000000Y-38100000D03*
D20*
X110000000Y-40640000D03*
X110000000Y-43180000D03*
X110000000Y-45720000D03*
%TD*%
D15*
%TO.C,C17*%
X136600000Y-52600000D03*
D16*
X140100000Y-52600000D03*
%TD*%
D10*
%TO.C,J12*%
X113500000Y-61500000D03*
%TD*%
%TO.C,J11*%
X177500000Y-61500000D03*
%TD*%
M02*
